# Blender 5.1.0
# www.blender.org
mtllib bench.mtl
o Bench
v -0.300000 0.024619 1.067174
v -0.300000 0.725381 1.067174
v -0.300000 0.024619 -1.067174
v -0.300000 0.725381 -1.067174
v 0.300000 0.000000 1.100000
v 0.300000 0.750000 1.100000
v 0.300000 0.000000 -1.100000
v 0.300000 0.750000 -1.100000
v -0.300000 0.000000 -1.100000
v -0.300000 0.000000 1.100000
v -0.300000 0.750000 1.100000
v -0.300000 0.750000 -1.100000
v 0.211636 0.387531 -1.067174
v 0.211636 0.387531 1.067174
v 0.211636 0.725381 -1.067174
v 0.211636 0.725381 1.067174
v 0.211636 0.024619 1.067174
v 0.211636 0.024619 -1.067174
v -0.300000 0.362469 1.100000
v -0.300000 0.387531 1.100000
v -0.300000 0.387531 -1.100000
v -0.300000 0.362469 -1.100000
v 0.300000 0.362469 -1.100000
v 0.300000 0.387531 -1.100000
v 0.300000 0.362469 1.100000
v 0.300000 0.387531 1.100000
v -0.300000 0.387531 1.067174
v -0.300000 0.362469 1.067174
v -0.300000 0.362469 -1.067174
v -0.300000 0.387531 -1.067174
v 0.211636 0.362469 -1.067174
v 0.211636 0.362469 1.067174
vn -0.0000 -1.0000 -0.0000
vn -0.0000 -0.0000 1.0000
vn -0.0000 -0.0000 -1.0000
vn -0.0000 1.0000 -0.0000
vn -1.0000 -0.0000 -0.0000
vn 1.0000 -0.0000 -0.0000
vt 0.497950 0.487732
vt 0.497950 0.094416
vt 0.592234 0.094416
vt 0.592234 0.487732
vt 0.905584 0.582016
vt 0.843325 0.582016
vt 0.843325 0.487732
vt 0.905584 0.487732
vt 0.654493 0.582016
vt 0.592234 0.582016
vt 0.654493 0.487732
vt 0.387118 0.110700
vt 0.497686 0.110700
vt 0.497686 0.516114
vt 0.387118 0.516114
vt 0.138342 0.110700
vt 0.248909 0.110700
vt 0.248909 0.516114
vt 0.138342 0.516114
vt 0.382582 0.510065
vt 0.382582 0.116749
vt 0.592234 0.000132
vt 0.654493 0.000132
vt 0.654493 0.094416
vt 0.253446 0.116749
vt 0.253446 0.510065
vt 0.749041 0.487732
vt 0.749041 0.094416
vt 0.843325 0.094416
vt 0.843325 0.000132
vt 0.905584 0.000132
vt 0.905584 0.094416
vt 0.315704 0.116749
vt 0.315704 0.110700
vt 0.320323 0.110700
vt 0.320323 0.116749
vt 0.320323 0.510065
vt 0.320323 0.516114
vt 0.315704 0.516114
vt 0.315704 0.510065
vt 0.315705 0.626681
vt 0.320323 0.626681
vt 0.071546 0.110700
vt 0.071546 0.516114
vt 0.066928 0.516114
vt 0.066928 0.110700
vt 0.315704 0.000132
vt 0.320323 0.000132
vt 0.387118 0.626681
vt 0.248909 0.626681
vt 0.387118 0.000132
vt 0.248909 0.000132
vt 0.000132 0.110700
vt 0.000132 0.516114
vt 0.999868 0.094416
vt 0.999868 0.487732
vt 0.748777 0.094416
vt 0.748777 0.487732
s 0
f 2/1/1 4/2/1 15/3/1 16/4/1
f 29/5/2 3/6/2 18/7/2 31/8/2
f 27/9/3 2/10/3 16/4/3 14/11/3
f 9/12/1 7/13/1 5/14/1 10/15/1
f 8/16/4 12/17/4 11/18/4 6/19/4
f 1/20/5 3/21/5 9/12/5 10/15/5
f 4/22/2 30/23/2 13/24/2 15/3/2
f 4/25/5 2/26/5 11/18/5 12/17/5
f 3/27/4 1/28/4 17/29/4 18/7/4
f 1/30/3 28/31/3 32/32/3 17/29/3
f 17/29/5 32/32/5 31/8/5 18/7/5
f 14/11/5 16/4/5 15/3/5 13/24/5
f 30/33/5 21/34/5 22/35/5 29/36/5
f 28/37/5 19/38/5 20/39/5 27/40/5
f 26/41/2 20/39/2 19/38/2 25/42/2
f 24/43/6 26/44/6 25/45/6 23/46/6
f 21/34/3 24/47/3 23/48/3 22/35/3
f 27/40/5 30/33/5 29/36/5 28/37/5
f 2/26/5 27/40/5 20/39/5 11/18/5
f 5/49/2 25/42/2 19/38/2 10/15/2
f 28/37/5 1/20/5 10/15/5 19/38/5
f 26/41/2 6/50/2 11/18/2 20/39/2
f 9/12/3 22/35/3 23/48/3 7/51/3
f 3/21/5 29/36/5 22/35/5 9/12/5
f 21/34/3 12/17/3 8/52/3 24/47/3
f 30/33/5 4/25/5 12/17/5 21/34/5
f 24/43/6 8/16/6 6/19/6 26/44/6
f 7/53/6 23/46/6 25/45/6 5/54/6
f 28/55/1 29/56/1 31/8/1 32/32/1
f 30/57/4 27/58/4 14/11/4 13/24/4
