# Blender 5.1.0
# www.blender.org
mtllib bench.mtl
o Bench
v -0.112403 0.024619 -1.491578
v -0.112403 0.725381 -1.491578
v 0.300000 0.000000 -1.524404
v 0.300000 0.750000 -1.524404
v -0.112403 0.000000 -1.524404
v -0.112403 0.750000 -1.524404
v 0.211637 0.387531 -1.491578
v 0.211637 0.725381 -1.491578
v 0.211637 0.024619 -1.491578
v -0.112403 0.387531 -1.524404
v -0.112403 0.362469 -1.524404
v 0.300000 0.362469 -1.524404
v 0.300000 0.387531 -1.524404
v -0.112403 0.362469 -1.491578
v -0.112403 0.387531 -1.491578
v 0.211637 0.362469 -1.491578
v -0.112403 0.024619 1.491578
v -0.112403 0.725381 1.491578
v 0.300000 0.000000 1.524404
v 0.300000 0.750000 1.524404
v -0.112403 0.000000 1.524404
v -0.112403 0.750000 1.524404
v 0.211637 0.387531 1.491578
v 0.211637 0.725381 1.491578
v 0.211637 0.024619 1.491578
v -0.112403 0.387531 1.524404
v -0.112403 0.362469 1.524404
v 0.300000 0.362469 1.524404
v 0.300000 0.387531 1.524404
v -0.112403 0.362469 1.491578
v -0.112403 0.387531 1.491578
v 0.211637 0.362469 1.491578
vn -0.0000 1.0000 -0.0000
vn -0.0000 -0.0000 1.0000
vn -0.0000 -1.0000 -0.0000
vn -1.0000 -0.0000 -0.0000
vn -0.0000 -0.0000 -1.0000
vn 1.0000 -0.0000 -0.0000
vt 0.383206 0.246270
vt 0.495823 0.246270
vt 0.616794 0.246270
vt 0.504177 0.246270
vt 0.504177 0.250000
vt 0.495823 0.250000
vt 0.504177 0.500000
vt 0.495823 0.500000
vt 0.375000 0.250000
vt 0.375000 0.500000
vt 0.625000 0.250000
vt 0.625000 0.500000
vt 0.875000 0.500000
vt 0.125000 0.500000
s 0
f 17/1/1 25/1/1 9/1/1 1/1/1
f 14/2/2 1/1/2 9/1/2 16/2/2
f 2/3/2 15/4/2 7/4/2 8/3/2
f 16/2/3 32/2/3 30/2/3 14/2/3
f 8/3/3 24/3/3 18/3/3 2/3/3
f 15/4/4 10/5/4 11/6/4 14/2/4
f 10/5/5 13/7/5 12/8/5 11/6/5
f 29/7/6 28/8/6 12/8/6 13/7/6
f 5/9/5 11/6/5 12/8/5 3/10/5
f 1/1/4 14/2/4 11/6/4 5/9/4
f 10/5/5 6/11/5 4/12/5 13/7/5
f 15/4/4 2/3/4 6/11/4 10/5/4
f 7/4/4 23/4/4 24/3/4 8/3/4
f 31/4/1 23/4/1 7/4/1 15/4/1
f 9/1/4 25/1/4 32/2/4 16/2/4
f 29/7/6 13/7/6 4/12/6 20/12/6
f 19/10/6 3/10/6 12/8/6 28/8/6
f 20/12/1 4/12/1 6/13/1 22/13/1
f 18/3/4 22/11/4 6/11/4 2/3/4
f 21/14/3 5/14/3 3/10/3 19/10/3
f 5/9/4 21/9/4 17/1/4 1/1/4
f 30/2/5 32/2/5 25/1/5 17/1/5
f 18/3/5 24/3/5 23/4/5 31/4/5
f 31/4/4 30/2/4 27/6/4 26/5/4
f 26/5/2 27/6/2 28/8/2 29/7/2
f 21/9/2 19/10/2 28/8/2 27/6/2
f 17/1/4 21/9/4 27/6/4 30/2/4
f 26/5/2 29/7/2 20/12/2 22/11/2
f 31/4/4 26/5/4 22/11/4 18/3/4
f 14/2/4 30/2/4 31/4/4 15/4/4
