# Blender 5.1.0
# www.blender.org
mtllib button.mtl
o Button
v 0.000000 -0.000000 -0.024000
v 0.000000 0.030403 -0.036987
v 0.016971 -0.000000 -0.016970
v 0.026154 0.030403 -0.026154
v 0.024000 -0.000000 0.000000
v 0.036988 0.030403 0.000000
v 0.016971 -0.000000 0.016971
v 0.026154 0.030403 0.026154
v 0.000000 -0.000000 0.024000
v 0.000000 0.030403 0.036988
v -0.016970 -0.000000 0.016971
v -0.026154 0.030403 0.026154
v -0.024000 -0.000000 0.000000
v -0.036988 0.030403 0.000000
v -0.016970 -0.000000 -0.016970
v -0.026154 0.030403 -0.026154
v 0.000000 0.017687 -0.024000
v 0.016971 0.017687 -0.016970
v 0.024000 0.017687 0.000000
v 0.016971 0.017687 0.016971
v 0.000000 0.017687 0.024000
v -0.016970 0.017687 0.016971
v -0.024000 0.017687 0.000000
v -0.016970 0.017687 -0.016970
v -0.000000 0.017687 -0.048528
v 0.034315 0.017687 -0.034314
v 0.048528 0.017687 0.000000
v 0.034315 0.017687 0.034315
v -0.000000 0.017687 0.048528
v -0.034315 0.017687 0.034315
v -0.048528 0.017687 0.000000
v -0.034315 0.017687 -0.034314
vn 0.2932 0.6425 -0.7079
vn 0.7080 0.6425 -0.2932
vn 0.7080 0.6425 0.2932
vn 0.2932 0.6425 0.7080
vn -0.2932 0.6425 0.7079
vn -0.7079 0.6425 0.2932
vn -0.0000 1.0000 -0.0000
vn -0.7079 0.6425 -0.2932
vn -0.2932 0.6425 -0.7079
vn -0.0000 -1.0000 -0.0000
vn -0.3827 -0.0000 -0.9239
vn -0.9239 -0.0000 -0.3827
vn -0.9239 -0.0000 0.3827
vn -0.3827 -0.0000 0.9239
vn 0.3827 -0.0000 0.9239
vn 0.9239 -0.0000 0.3827
vn 0.9239 -0.0000 -0.3827
vn 0.3827 -0.0000 -0.9239
vt 1.000000 0.842120
vt 1.000000 0.908350
vt 0.875000 0.908350
vt 0.875000 0.842120
vt 0.750000 0.908350
vt 0.750000 0.842120
vt 0.625000 0.908350
vt 0.625000 0.842120
vt 0.500000 0.908350
vt 0.500000 0.842120
vt 0.375000 0.908350
vt 0.375000 0.842120
vt 0.250000 0.908350
vt 0.250000 0.842120
vt 0.548655 0.548658
vt 0.249997 0.672366
vt -0.048661 0.548658
vt -0.172369 0.250000
vt -0.048661 -0.048657
vt 0.249997 -0.172366
vt 0.548655 -0.048657
vt 0.672363 0.250000
vt 0.125000 0.908350
vt 0.125000 0.842120
vt 0.000000 0.908350
vt 0.000000 0.842120
vt 0.750000 0.490000
vt 0.919706 0.419706
vt 0.990000 0.250000
vt 0.919706 0.080294
vt 0.750000 0.010000
vt 0.580294 0.080294
vt 0.510000 0.250000
vt 0.580294 0.419706
vt 0.125000 0.500000
vt 0.125000 0.684241
vt 0.000000 0.684241
vt 0.000000 0.500000
vt 0.250000 0.500000
vt 0.250000 0.684241
vt 0.375000 0.500000
vt 0.375000 0.684241
vt 0.500000 0.500000
vt 0.500000 0.684241
vt 0.625000 0.500000
vt 0.625000 0.684241
vt 0.750000 0.500000
vt 0.750000 0.684241
vt 0.875000 0.500000
vt 0.875000 0.684241
vt 1.000000 0.500000
vt 1.000000 0.684241
s 0
f 25/1/1 2/2/1 4/3/1 26/4/1
f 26/4/2 4/3/2 6/5/2 27/6/2
f 27/6/3 6/5/3 8/7/3 28/8/3
f 28/8/4 8/7/4 10/9/4 29/10/4
f 29/10/5 10/9/5 12/11/5 30/12/5
f 30/12/6 12/11/6 14/13/6 31/14/6
f 4/15/7 2/16/7 16/17/7 14/18/7 12/19/7 10/20/7 8/21/7 6/22/7
f 31/14/8 14/13/8 16/23/8 32/24/8
f 32/24/9 16/23/9 2/25/9 25/26/9
f 1/27/10 3/28/10 5/29/10 7/30/10 9/31/10 11/32/10 13/33/10 15/34/10
f 15/35/11 24/36/11 17/37/11 1/38/11
f 13/39/12 23/40/12 24/36/12 15/35/12
f 11/41/13 22/42/13 23/40/13 13/39/13
f 9/43/14 21/44/14 22/42/14 11/41/14
f 7/45/15 20/46/15 21/44/15 9/43/15
f 5/47/16 19/48/16 20/46/16 7/45/16
f 3/49/17 18/50/17 19/48/17 5/47/17
f 1/51/18 17/52/18 18/50/18 3/49/18
f 24/36/10 32/24/10 25/26/10 17/37/10
f 23/40/10 31/14/10 32/24/10 24/36/10
f 22/42/10 30/12/10 31/14/10 23/40/10
f 21/44/10 29/10/10 30/12/10 22/42/10
f 20/46/10 28/8/10 29/10/10 21/44/10
f 19/48/10 27/6/10 28/8/10 20/46/10
f 18/50/10 26/4/10 27/6/10 19/48/10
f 17/52/10 25/1/10 26/4/10 18/50/10
