# Blender 5.1.0
# www.blender.org
mtllib buttonPanel.mtl
o Panel
v 0.108736 -0.189280 0.217473
v 0.108736 0.028193 0.000000
v 0.089847 0.014837 0.078192
v 0.089847 -0.111088 0.204117
v 0.108736 -0.189280 0.161086
v 0.108736 -0.028193 0.000000
v 0.000000 0.028193 0.000000
v 0.000000 -0.189280 0.217473
v 0.000000 0.014837 0.078192
v 0.000000 -0.111088 0.204117
v 0.000000 -0.189280 0.161086
v 0.000000 -0.028193 0.000000
v 0.108736 -0.124444 0.217473
v 0.108736 0.028193 0.064835
v 0.000000 0.028193 0.064835
v 0.000000 -0.124444 0.217473
v 0.000000 0.009273 0.072628
v 0.000000 -0.116652 0.198553
v 0.089847 -0.116652 0.198553
v 0.089847 0.009273 0.072628
v 0.000000 0.028193 0.018864
v 0.103898 0.028193 0.018864
v 0.000000 0.036301 0.045972
v 0.095790 0.036301 0.045972
v 0.000000 0.091876 0.018864
v 0.103898 0.091876 0.018864
v 0.000000 0.083768 0.045972
v 0.095790 0.083768 0.045972
v 0.000000 0.028193 0.045972
v 0.103898 0.028193 0.045972
v 0.000000 0.091876 0.045972
v 0.103898 0.091876 0.045972
v 0.000000 0.083768 0.040541
v 0.000000 0.036301 0.040541
v 0.095790 0.036301 0.040541
v 0.095790 0.083768 0.040541
v -0.108736 -0.189280 0.217473
v -0.108736 0.028193 0.000000
v -0.089847 0.014837 0.078192
v -0.089847 -0.111088 0.204117
v -0.108736 -0.189280 0.161086
v -0.108736 -0.028193 0.000000
v -0.108736 -0.124444 0.217473
v -0.108736 0.028193 0.064835
v -0.089847 -0.116652 0.198553
v -0.089847 0.009273 0.072628
v -0.103898 0.028193 0.018864
v -0.095790 0.036301 0.045972
v -0.103898 0.091876 0.018864
v -0.095790 0.083768 0.045972
v -0.103898 0.028193 0.045972
v -0.103898 0.091876 0.045972
v -0.095790 0.036301 0.040541
v -0.095790 0.083768 0.040541
vn -0.0000 0.7071 -0.7071
vn -0.0000 1.0000 -0.0000
vn -0.0000 -0.0000 -1.0000
vn -0.0000 -1.0000 -0.0000
vn 1.0000 -0.0000 -0.0000
vn -0.0000 -0.7071 -0.7071
vn -0.0000 -0.0000 1.0000
vn -0.0000 0.7071 0.7071
vn -0.0000 -0.7071 0.7071
vn -1.0000 -0.0000 -0.0000
vt 0.011153 0.125682
vt 0.011154 0.251204
vt 0.000160 0.251204
vt 0.000160 0.125682
vt 0.131227 0.566557
vt 0.131227 0.475978
vt 0.137986 0.502332
vt 0.137986 0.540203
vt 0.283138 0.397202
vt 0.283138 0.475978
vt 0.131227 0.397202
vt 0.283138 0.078936
vt 0.131227 0.078936
vt 0.131227 0.000160
vt 0.283138 0.000160
vt 0.011474 0.876477
vt 0.011474 0.558211
vt 0.067178 0.502508
vt 0.131227 0.868131
vt 0.067177 0.932180
vt 0.283138 0.566557
vt 0.283138 0.540203
vt 0.131227 0.958710
vt 0.283138 0.868131
vt 0.283138 0.958710
vt 0.157616 0.841742
vt 0.283138 0.841742
vt 0.283138 0.592946
vt 0.157616 0.592946
vt 0.011154 0.500000
vt 0.011154 0.625522
vt 0.000161 0.625522
vt 0.000161 0.500000
vt 0.878459 0.468720
vt 0.878459 0.594243
vt 0.629663 0.594243
vt 0.629663 0.468720
vt 0.283138 0.502332
vt 0.651996 0.379432
vt 0.651997 0.234280
vt 0.689868 0.234280
vt 0.689868 0.379432
vt 0.563028 0.379432
vt 0.563028 0.234280
vt 0.562708 0.066475
vt 0.562708 0.200301
vt 0.555122 0.200301
vt 0.555122 0.066475
vt 0.689868 0.468401
vt 0.651996 0.468401
vt 0.562708 0.000160
vt 0.555122 0.000160
vt 0.767510 0.368105
vt 0.767510 0.234280
vt 0.778836 0.234280
vt 0.778836 0.379432
vt 0.701194 0.234280
vt 0.701194 0.368105
vt 0.629343 0.602545
vt 0.629343 0.736371
vt 0.563028 0.736371
vt 0.563028 0.602545
vt 0.562708 0.534266
vt 0.562708 0.668092
vt 0.555122 0.668092
vt 0.555122 0.534266
vt 0.000160 0.000160
vt 0.011153 0.000160
vt 0.435050 0.566557
vt 0.428290 0.540203
vt 0.428290 0.502332
vt 0.435050 0.475978
vt 0.435050 0.397202
vt 0.435050 0.000160
vt 0.435050 0.078936
vt 0.554802 0.876477
vt 0.499099 0.932180
vt 0.435050 0.868131
vt 0.499099 0.502508
vt 0.554802 0.558211
vt 0.435050 0.958710
vt 0.408660 0.841742
vt 0.408661 0.592946
vt 0.011154 0.751044
vt 0.000161 0.751045
vt 0.878459 0.719765
vt 0.629663 0.719765
vt 0.651997 0.089128
vt 0.689868 0.089128
vt 0.563028 0.089128
vt 0.562708 0.334126
vt 0.555122 0.334126
vt 0.689868 0.000160
vt 0.651997 0.000160
vt 0.562708 0.400441
vt 0.555122 0.400441
vt 0.767510 0.100455
vt 0.778836 0.089128
vt 0.701194 0.100455
vt 0.563028 0.468720
vt 0.629343 0.468720
vt 0.011155 0.999840
vt 0.000161 0.999840
s 0
f 10/1/1 4/2/1 19/3/1 18/4/1
f 14/5/2 2/6/2 22/7/2 30/8/2
f 12/9/3 7/10/3 2/6/3 6/11/3
f 11/12/4 5/13/4 1/14/4 8/15/4
f 5/16/5 6/17/5 2/18/5 14/5/5 13/19/5 1/20/5
f 5/13/6 11/12/6 12/9/6 6/11/6
f 15/21/2 14/5/2 30/8/2 29/22/2
f 1/23/7 13/19/7 16/24/7 8/25/7
f 4/26/8 10/27/8 16/24/8 13/19/8
f 9/28/8 3/29/8 14/5/8 15/21/8
f 3/29/8 4/26/8 13/19/8 14/5/8
f 3/30/9 9/31/9 17/32/9 20/33/9
f 20/34/8 17/35/8 18/36/8 19/37/8
f 2/6/2 7/10/2 21/38/2 22/7/2
f 26/39/2 25/40/2 31/41/2 32/42/2
f 22/43/3 21/44/3 25/40/3 26/39/3
f 28/45/4 27/46/4 33/47/4 36/48/4
f 30/49/5 22/50/5 26/39/5 32/42/5
f 24/51/10 28/45/10 36/48/10 35/52/10
f 24/53/7 23/54/7 29/55/7 30/56/7
f 27/57/7 28/58/7 32/42/7 31/41/7
f 28/58/7 24/53/7 30/56/7 32/42/7
f 34/59/7 35/60/7 36/61/7 33/62/7
f 23/63/2 24/64/2 35/65/2 34/66/2
f 4/2/10 3/30/10 20/33/10 19/3/10
f 10/1/1 18/4/1 45/67/1 40/68/1
f 44/69/2 51/70/2 47/71/2 38/72/2
f 12/9/3 42/73/3 38/72/3 7/10/3
f 11/12/4 8/15/4 37/74/4 41/75/4
f 41/76/10 37/77/10 43/78/10 44/69/10 38/79/10 42/80/10
f 41/75/6 42/73/6 12/9/6 11/12/6
f 15/21/2 29/22/2 51/70/2 44/69/2
f 37/81/7 8/25/7 16/24/7 43/78/7
f 40/82/8 43/78/8 16/24/8 10/27/8
f 9/28/8 15/21/8 44/69/8 39/83/8
f 39/83/8 44/69/8 43/78/8 40/82/8
f 39/84/9 46/85/9 17/32/9 9/31/9
f 46/86/8 45/87/8 18/36/8 17/35/8
f 38/72/2 47/71/2 21/38/2 7/10/2
f 49/88/2 52/89/2 31/41/2 25/40/2
f 47/90/3 49/88/3 25/40/3 21/44/3
f 50/91/4 54/92/4 33/47/4 27/46/4
f 51/93/10 52/89/10 49/88/10 47/94/10
f 48/95/5 53/96/5 54/92/5 50/91/5
f 48/97/7 51/98/7 29/55/7 23/54/7
f 27/57/7 31/41/7 52/89/7 50/99/7
f 50/99/7 52/89/7 51/98/7 48/97/7
f 34/59/7 33/62/7 54/100/7 53/101/7
f 23/63/2 34/66/2 53/96/2 48/95/2
f 40/102/5 45/103/5 46/85/5 39/84/5
