# Blender 5.1.0
# www.blender.org
mtllib Door.mtl
o Cube.002
v 0.020681 2.567061 -0.620827
v 0.020681 2.567061 0.620827
v 0.020681 0.780293 0.620827
v 0.020681 2.212464 0.620827
v 0.020681 0.000000 0.620827
v 0.020681 0.780293 -0.620827
v 0.020681 0.000000 -0.620827
v 0.020681 2.212464 -0.620827
v -0.020681 2.567061 -0.620827
v -0.020681 2.567061 0.620827
v -0.020681 0.780293 0.620827
v -0.020681 2.212464 0.620827
v -0.020681 0.000000 0.620827
v -0.020681 0.780293 -0.620827
v -0.020681 0.000000 -0.620827
v -0.020681 2.212464 -0.620827
vn 1.0000 -0.0000 -0.0000
vn -1.0000 -0.0000 -0.0000
vn -0.0000 1.0000 -0.0000
vn -0.0000 -0.0000 -1.0000
vn -0.0000 -0.0000 1.0000
vn -0.0000 -1.0000 -0.0000
vt 0.007255 0.185993
vt 0.201346 0.185993
vt 0.201346 0.527264
vt 0.007255 0.527264
vt 0.201346 0.611761
vt 0.007255 0.611761
vt 0.007255 0.000058
vt 0.201346 0.000058
vt 0.402517 0.185993
vt 0.402517 0.527264
vt 0.208427 0.527264
vt 0.208427 0.185993
vt 0.402517 0.611761
vt 0.208427 0.611761
vt 0.402517 0.000058
vt 0.208427 0.000058
vt 0.007140 0.805852
vt 0.007140 0.999942
vt 0.000059 0.999942
vt 0.000058 0.805852
vt 0.007139 0.380084
vt 0.007139 0.721355
vt 0.000058 0.721355
vt 0.000058 0.380084
vt 0.007139 0.194148
vt 0.000058 0.194148
vt 0.007139 0.000058
vt 0.000058 0.000058
s 0
f 3/1/1 6/2/1 8/3/1 4/4/1
f 8/3/1 1/5/1 2/6/1 4/4/1
f 5/7/1 7/8/1 6/2/1 3/1/1
f 11/9/2 12/10/2 16/11/2 14/12/2
f 16/11/2 12/10/2 10/13/2 9/14/2
f 13/15/2 11/9/2 14/12/2 15/16/2
f 2/17/3 1/18/3 9/19/3 10/20/3
f 1/5/4 8/3/4 16/11/4 9/14/4
f 8/3/4 6/2/4 14/12/4 16/11/4
f 3/21/5 4/22/5 12/23/5 11/24/5
f 4/22/5 2/17/5 10/20/5 12/23/5
f 5/25/5 3/21/5 11/24/5 13/26/5
f 6/2/4 7/8/4 15/16/4 14/12/4
f 7/27/6 5/25/6 13/26/6 15/28/6
