# Blender 5.1.0
# www.blender.org
mtllib fuelTank.mtl
o Cube.001
v 0.000000 0.000000 0.629481
v 0.314740 0.000000 0.545147
v 0.000000 1.494063 0.629481
v -0.314740 0.000000 0.545147
v -0.545146 0.000000 0.314741
v -0.629481 0.000000 0.000000
v -0.545146 1.494063 0.314741
v -0.314740 1.494063 0.545147
v -0.629481 1.494063 0.000000
v -0.545146 2.493906 0.314741
v -0.629481 2.493906 0.000000
v -0.314740 2.493906 0.545147
v -0.438292 2.759686 0.253049
v -0.506096 2.759686 0.000000
v -0.253048 2.759686 0.438293
v -0.233035 2.966913 0.134543
v -0.269086 2.966913 0.000000
v -0.134543 2.966913 0.233036
v -0.000000 2.966913 0.269086
v 0.134543 2.966913 0.233036
v 0.000000 2.759686 0.506097
v 0.253048 2.759686 0.438293
v 0.000000 2.493906 0.629481
v 0.314740 2.493906 0.545147
v 0.545146 2.493906 0.314741
v 0.314740 1.494063 0.545147
v 0.545146 1.494063 0.314741
v 0.545146 0.000000 0.314741
v 0.629481 1.494063 0.000000
v 0.629481 0.000000 0.000000
v 0.545146 1.494063 -0.314740
v 0.629481 2.493906 0.000000
v 0.545146 2.493906 -0.314740
v 0.506096 2.759686 0.000000
v 0.438292 2.759686 0.253049
v 0.438292 2.759686 -0.253048
v 0.269086 2.966913 0.000000
v 0.233035 2.966913 0.134543
v 0.233035 2.966913 -0.134542
v 0.134543 2.966913 -0.233035
v -0.000000 2.966913 -0.269086
v 0.253048 2.759686 -0.438292
v 0.000000 2.759686 -0.506096
v 0.314740 2.493906 -0.545146
v 0.000000 2.493906 -0.629480
v 0.314740 1.494063 -0.545146
v 0.314740 0.000000 -0.545146
v 0.000000 1.494063 -0.629480
v 0.000000 0.000000 -0.629480
v -0.314740 1.494063 -0.545146
v -0.314740 0.000000 -0.545146
v -0.545146 1.494063 -0.314740
v -0.314740 2.493906 -0.545146
v -0.545146 2.493906 -0.314740
v -0.253048 2.759686 -0.438292
v -0.438292 2.759686 -0.253048
v -0.134543 2.966913 -0.233035
v -0.233035 2.966913 -0.134542
v -0.545146 0.000000 -0.314740
v 0.545146 0.000000 -0.314740
v -0.276339 0.000000 0.171426
v 0.153604 0.000000 0.286629
v -0.153604 0.000000 -0.286629
v 0.276339 0.000000 -0.171426
vn 0.2588 -0.0000 0.9659
vn -0.2588 -0.0000 0.9659
vn -0.9659 -0.0000 0.2588
vn -0.7071 -0.0000 0.7071
vn -0.8814 0.4092 0.2362
vn -0.6452 0.4092 0.6452
vn -0.6482 0.7414 0.1737
vn -0.4745 0.7414 0.4745
vn -0.0000 1.0000 -0.0000
vn -0.1737 0.7414 0.6482
vn 0.1737 0.7414 0.6482
vn 0.2362 0.4092 0.8814
vn -0.2362 0.4092 0.8814
vn 0.7071 -0.0000 0.7071
vn 0.6452 0.4092 0.6452
vn 0.9659 -0.0000 0.2588
vn 0.9659 -0.0000 -0.2588
vn 0.8814 0.4092 0.2362
vn 0.8814 0.4092 -0.2362
vn 0.6482 0.7414 0.1737
vn 0.6482 0.7414 -0.1737
vn 0.4745 0.7414 -0.4745
vn 0.1737 0.7414 -0.6482
vn 0.6452 0.4092 -0.6452
vn 0.2362 0.4092 -0.8814
vn 0.7071 -0.0000 -0.7071
vn 0.2588 -0.0000 -0.9659
vn -0.2588 -0.0000 -0.9659
vn -0.7071 -0.0000 -0.7071
vn -0.2362 0.4092 -0.8814
vn -0.6452 0.4092 -0.6452
vn -0.1737 0.7414 -0.6482
vn -0.4745 0.7414 -0.4745
vn -0.6482 0.7414 -0.1737
vn -0.8814 0.4092 -0.2362
vn -0.9659 -0.0000 -0.2588
vn 0.4745 0.7414 0.4745
vn -0.0000 -1.0000 -0.0000
vt 1.000000 0.750000
vt 1.000000 1.000000
vt 0.916667 1.000000
vt 0.916667 0.750000
vt 0.083333 0.750000
vt 0.083333 1.000000
vt 0.000000 1.000000
vt 0.000000 0.750000
vt 0.250000 0.750000
vt 0.250000 1.000000
vt 0.166667 1.000000
vt 0.166667 0.750000
vt 0.250000 1.000000
vt 0.384509 0.482977
vt 0.482977 0.384509
vt 0.519018 0.250000
vt 0.482977 0.115491
vt 0.384509 0.017023
vt 0.250000 -0.019018
vt 0.115491 0.017023
vt 0.017023 0.115491
vt -0.019018 0.250000
vt 0.017023 0.384509
vt 0.115491 0.482977
vt 0.250000 0.519018
vt 0.916667 1.000000
vt 0.833333 0.750000
vt 0.833333 1.000000
vt 0.750000 1.000000
vt 0.750000 0.750000
vt 0.666667 1.000000
vt 0.666667 0.750000
vt 0.583333 1.000000
vt 0.500000 1.000000
vt 0.583333 0.750000
vt 0.500000 0.750000
vt 0.416667 1.000000
vt 0.416667 0.750000
vt 0.333333 1.000000
vt 0.333333 0.750000
vt 0.416667 1.000000
vt 0.500000 1.000000
vt 0.750000 1.000000
vt 0.666667 1.000000
s 0
f 3/1/1 1/2/1 2/3/1 26/4/1
f 8/5/2 4/6/2 1/7/2 3/8/2
f 9/9/3 6/10/3 5/11/3 7/12/3
f 7/12/4 5/11/4 4/6/4 8/5/4
f 7/12/4 8/5/4 12/6/4 10/11/4
f 9/9/3 7/12/3 10/11/3 11/10/3
f 10/11/5 13/11/5 14/13/5 11/10/5
f 12/6/6 15/6/6 13/11/6 10/11/6
f 13/11/7 16/11/7 17/13/7 14/13/7
f 15/6/8 18/6/8 16/11/8 13/11/8
f 20/14/9 38/15/9 37/16/9 39/17/9 40/18/9 41/19/9 57/20/9 58/21/9 17/22/9 16/23/9 18/24/9 19/25/9
f 21/7/10 19/7/10 18/6/10 15/6/10
f 22/26/11 20/26/11 19/2/11 21/2/11
f 24/3/12 22/26/12 21/2/12 23/2/12
f 23/7/13 21/7/13 15/6/13 12/6/13
f 3/1/1 26/4/1 24/3/1 23/2/1
f 8/5/2 3/8/2 23/7/2 12/6/2
f 26/4/14 27/27/14 25/28/14 24/3/14
f 25/28/15 35/28/15 22/26/15 24/3/15
f 26/4/14 2/3/14 28/28/14 27/27/14
f 27/27/16 28/28/16 30/29/16 29/30/16
f 27/27/16 29/30/16 32/29/16 25/28/16
f 29/30/17 30/29/17 60/31/17 31/32/17
f 29/30/17 31/32/17 33/31/17 32/29/17
f 32/29/18 34/29/18 35/28/18 25/28/18
f 33/31/19 36/31/19 34/29/19 32/29/19
f 34/29/20 37/29/20 38/28/20 35/28/20
f 36/31/21 39/31/21 37/29/21 34/29/21
f 42/33/22 40/33/22 39/31/22 36/31/22
f 43/34/23 41/34/23 40/33/23 42/33/23
f 44/33/24 42/33/24 36/31/24 33/31/24
f 45/34/25 43/34/25 42/33/25 44/33/25
f 31/32/26 46/35/26 44/33/26 33/31/26
f 46/35/27 48/36/27 45/34/27 44/33/27
f 31/32/26 60/31/26 47/33/26 46/35/26
f 46/35/27 47/33/27 49/34/27 48/36/27
f 48/36/28 49/34/28 51/37/28 50/38/28
f 48/36/28 50/38/28 53/37/28 45/34/28
f 50/38/29 51/37/29 59/39/29 52/40/29
f 50/38/29 52/40/29 54/39/29 53/37/29
f 53/37/30 55/37/30 43/34/30 45/34/30
f 54/39/31 56/39/31 55/37/31 53/37/31
f 55/37/32 57/37/32 41/34/32 43/34/32
f 56/39/33 58/39/33 57/37/33 55/37/33
f 14/13/34 17/13/34 58/39/34 56/39/34
f 11/10/35 14/13/35 56/39/35 54/39/35
f 52/40/36 9/9/36 11/10/36 54/39/36
f 52/40/36 59/39/36 6/10/36 9/9/36
f 35/28/37 38/28/37 20/26/37 22/26/37
f 5/11/38 6/10/38 61/39/38 4/6/38
f 6/10/38 59/39/38 63/41/38 61/39/38
f 59/39/38 51/37/38 49/34/38 63/41/38
f 4/6/38 61/39/38 62/37/38 1/7/38
f 61/39/38 63/41/38 64/42/38 62/37/38
f 63/41/38 49/34/38 47/33/38 64/42/38
f 1/2/38 62/43/38 28/28/38 2/3/38
f 62/43/38 64/44/38 30/29/38 28/28/38
f 64/44/38 47/33/38 60/31/38 30/29/38
