# Blender 5.1.0
# www.blender.org
mtllib kiosk.mtl
o Cube.001
v -0.651169 1.261151 0.999843
v -0.336429 1.176817 0.999843
v -0.651169 1.261151 0.000000
v -0.965909 1.176817 0.999843
v -0.651169 1.137766 1.265622
v -0.398121 1.069962 1.265622
v -0.904217 1.069962 1.265622
v -0.651169 0.900756 1.472850
v -0.516626 0.864706 1.472850
v -0.785712 0.864706 1.472850
v -0.884204 0.766213 1.472850
v -0.920255 0.631670 1.472850
v -1.089461 0.884718 1.265622
v -1.157265 0.631670 1.265622
v -1.196315 0.946411 0.999843
v -1.280650 0.631670 0.999843
v -1.196315 0.946411 0.000000
v -0.965909 1.176817 0.000000
v -1.280650 0.631670 0.000000
v -1.196315 0.946411 -0.999843
v -1.280650 0.631670 -0.999843
v -0.965909 1.176817 -0.999843
v -1.089461 0.884719 -1.265622
v -1.157265 0.631670 -1.265622
v -0.904217 1.069963 -1.265622
v -0.884204 0.766214 -1.472850
v -0.920255 0.631670 -1.472850
v -0.785712 0.864706 -1.472850
v -0.651169 0.900757 -1.472850
v -0.516626 0.864706 -1.472850
v -0.651169 1.137767 -1.265622
v -0.398121 1.069963 -1.265622
v -0.651169 1.261151 -0.999843
v -0.336429 1.176817 -0.999843
v -0.106023 0.946411 -0.999843
v -0.336429 1.176817 0.000000
v -0.106023 0.946411 0.000000
v -0.106023 0.946411 0.999843
v -0.021688 0.631670 0.000000
v -0.021688 0.631670 0.999843
v -0.106023 0.316930 -0.000000
v -0.021688 0.631670 -0.999843
v -0.106023 0.316930 -0.999843
v -0.145073 0.631670 -1.265622
v -0.212877 0.884719 -1.265622
v -0.212877 0.378622 -1.265622
v -0.382083 0.631670 -1.472850
v -0.418134 0.766214 -1.472850
v -0.418134 0.497128 -1.472850
v -0.516626 0.398635 -1.472850
v -0.651169 0.362585 -1.472850
v -0.398121 0.193378 -1.265622
v -0.651169 0.125574 -1.265622
v -0.336429 0.086524 -0.999843
v -0.651169 0.002190 -0.999843
v -0.336429 0.086524 -0.000000
v -0.336429 0.086524 0.999843
v -0.651169 0.002190 -0.000000
v -0.651169 0.002190 0.999843
v -0.965909 0.086524 -0.000000
v -0.965909 0.086524 0.999843
v -1.196315 0.316930 -0.000000
v -0.965909 0.086524 -0.999843
v -1.196315 0.316930 -0.999843
v -0.904217 0.193378 -1.265622
v -1.089461 0.378622 -1.265622
v -0.785712 0.398635 -1.472850
v -0.884204 0.497128 -1.472850
v -1.196315 0.316930 0.999843
v -1.089461 0.378622 1.265622
v -0.904217 0.193378 1.265622
v -0.884204 0.497127 1.472850
v -0.785712 0.398635 1.472850
v -0.651169 0.362584 1.472850
v -0.516626 0.398635 1.472850
v -0.651169 0.125574 1.265622
v -0.398121 0.193378 1.265622
v -0.212877 0.378622 1.265622
v -0.145073 0.631670 1.265622
v -0.106023 0.316930 0.999843
v -0.418134 0.497127 1.472850
v -0.382083 0.631670 1.472850
v -0.418134 0.766213 1.472850
v -0.212877 0.884718 1.265622
v 1.858186 2.786592 -1.550808
v 1.559297 0.876595 -1.570136
v 1.863604 2.790485 -1.367616
v 1.875834 0.876595 -1.367616
v 1.863604 2.790485 0.000000
v 1.875834 0.876595 0.000000
v -0.000000 2.799272 -1.367616
v 0.274780 1.312322 -1.570136
v -0.000000 2.790485 -1.556742
v -0.000000 2.799272 0.000000
v -0.029527 1.291109 -1.367616
v -0.029527 1.291109 0.000000
v -1.416018 2.786592 -1.550808
v -1.419747 1.302322 -1.554892
v -1.248748 2.790485 -1.556742
v -1.237588 1.296286 -1.561072
v -1.421436 2.790485 -1.367616
v -1.425390 1.296286 -1.355393
v -1.248748 2.799272 -1.367616
v -1.248748 2.799272 0.000000
v -1.421436 2.790485 0.000000
v -1.421436 1.291109 0.000000
v -1.238906 1.284037 -1.356837
v -1.248748 1.282322 0.000000
v 1.858186 2.786592 1.550808
v 1.863604 0.876595 1.556742
v 1.863604 2.790485 1.367616
v 1.875834 0.876595 1.367616
v -0.000000 2.799272 1.367616
v -0.000000 2.790485 1.556742
v -0.029527 1.291109 1.367616
v -1.416018 2.786592 1.550808
v -1.419747 1.302322 1.554892
v -1.248748 2.790485 1.556742
v -1.421436 2.790485 1.367616
v -1.425390 1.296286 1.355393
v -1.248748 2.799272 1.367616
v -1.238906 1.284037 1.356837
v 1.875834 2.629275 -1.367616
v 1.875834 2.322435 -1.367616
v 1.875834 2.629275 0.000000
v -1.421436 2.629275 -1.556742
v -1.421436 2.322435 -1.556742
v -1.248748 2.322435 -1.570136
v -1.248748 2.629275 -1.570136
v -1.433666 2.322435 -1.367616
v -1.433666 2.629275 -1.367616
v -1.433666 2.629275 0.000000
v -1.433666 2.322435 0.000000
v 1.863604 2.629275 1.556742
v 1.863604 2.322435 1.556742
v 1.875834 2.322435 1.367616
v 1.875834 2.629275 1.367616
v -0.000000 2.322435 1.570136
v -1.421436 2.322435 1.556742
v -1.421436 2.629275 1.556742
v -1.433666 2.629275 1.367616
v -1.433666 2.322435 1.367616
v -0.012590 1.303276 1.565770
v -1.237588 1.296286 1.561072
v -1.248748 2.629275 1.570136
v -1.248748 2.322435 1.570136
v -0.000000 2.629275 1.570136
v -0.029527 -0.021213 -1.367616
v 1.863604 -0.021213 0.000000
v -1.416018 -0.017321 -1.550808
v -1.224640 -0.017321 -1.550808
v -1.416018 -0.017321 -1.341212
v -1.224640 -0.017321 -1.341212
v 1.863604 -0.021213 -1.367616
v -1.416018 -0.017321 1.550808
v -1.224640 -0.017321 1.550808
v -1.416018 -0.017321 1.341212
v -1.224640 -0.017321 1.341212
v -0.029527 -0.021213 0.000000
v -0.024109 -0.017321 1.550808
v 1.858186 -0.017321 1.550808
v 1.863604 -0.021213 1.367616
v -0.029527 -0.021213 1.367616
v 1.559297 0.088266 -1.570136
v 0.274780 0.088266 -1.570136
v -0.000000 2.629275 -1.570136
v 0.274780 2.234169 -1.570136
v 1.559297 2.234169 -1.570136
v 1.863604 2.629275 -1.556742
v 1.858186 -0.017321 -1.550807
v 1.863604 0.876595 -1.556742
v -0.024109 -0.017321 -1.550807
v -0.012590 1.303276 -1.565770
v 1.863604 2.322435 -1.556741
v -0.000000 2.322435 -1.570136
v 1.834077 2.769272 -1.524404
v 1.559297 0.876595 -1.524404
v 1.834077 2.769272 -1.367616
v 1.834077 0.876595 -1.367616
v 1.834077 2.769272 0.000000
v 1.834077 0.876595 0.000000
v -0.000000 2.769272 -1.367616
v 0.274780 1.312322 -1.524404
v -0.000000 2.769272 -1.524404
v -0.000000 2.769272 0.000000
v -0.000000 1.312322 -1.367616
v -0.000000 1.312322 0.000000
v -1.391909 2.769272 -1.524404
v -1.391909 1.312322 -1.524404
v -1.248748 2.769272 -1.524404
v -1.248748 1.312322 -1.524404
v -1.391909 2.769272 -1.367616
v -1.391909 1.312322 -1.367616
v -1.248748 2.769272 -1.367616
v -1.248748 2.769272 0.000000
v -1.391909 2.769272 0.000000
v -1.391909 1.312322 0.000000
v -1.248748 1.312322 -1.367616
v -1.248748 1.312322 0.000000
v 1.834077 2.769272 1.524404
v 1.834077 0.876595 1.524404
v 1.834077 2.769272 1.367616
v 1.834077 0.876595 1.367616
v -0.000000 2.769272 1.367616
v -0.000000 2.769272 1.524404
v -0.000000 1.312322 1.367616
v -1.391909 2.769272 1.524404
v -1.391909 1.312322 1.524404
v -1.248748 2.769272 1.524404
v -1.391909 2.769272 1.367616
v -1.391909 1.312322 1.367616
v -1.248748 2.769272 1.367616
v -1.248748 1.312322 1.367616
v 1.834077 2.629275 -1.367616
v 1.834077 2.322435 -1.367616
v 1.834077 2.629275 0.000000
v -1.391909 2.629275 -1.524404
v -1.391909 2.322435 -1.524404
v -1.248748 2.322435 -1.524404
v -1.248748 2.629275 -1.524404
v -1.391909 2.322435 -1.367616
v -1.391909 2.629275 -1.367616
v -1.391909 2.629275 0.000000
v -1.391909 2.322435 0.000000
v 1.834077 2.629275 1.524404
v 1.834077 2.322435 1.524404
v 1.834077 2.322435 1.367616
v 1.834077 2.629275 1.367616
v -0.000000 2.322435 1.524404
v -1.391909 2.322435 1.524404
v -1.391909 2.629275 1.524404
v -1.391909 2.629275 1.367616
v -1.391909 2.322435 1.367616
v -0.000000 1.312322 1.524404
v -1.248748 1.312322 1.524404
v -1.248748 2.629275 1.524404
v -1.248748 2.322435 1.524404
v -0.000000 2.629275 1.524404
v -0.000000 0.000000 -1.367616
v 1.834077 0.000000 0.000000
v -1.391909 0.000000 -1.524404
v -1.248748 0.000000 -1.524404
v -1.391909 0.000000 -1.367616
v -1.248748 0.000000 -1.367616
v 1.834077 0.000000 -1.367616
v -1.391909 0.000000 1.524404
v -1.248748 0.000000 1.524404
v -1.391909 0.000000 1.367616
v -1.248748 0.000000 1.367616
v -0.000000 0.000000 0.000000
v -0.000000 0.000000 1.524404
v 1.834077 0.000000 1.524404
v 1.834077 0.000000 1.367616
v -0.000000 0.000000 1.367616
v 1.559297 0.088266 -1.524404
v 0.274780 0.088266 -1.524404
v -0.000000 2.629275 -1.524404
v 0.274780 2.234169 -1.524404
v 1.559297 2.234169 -1.524404
v 1.834077 2.629275 -1.524404
v 1.834077 0.000000 -1.524404
v 1.834077 0.876595 -1.524404
v -0.000000 0.000000 -1.524404
v -0.000000 1.312322 -1.524404
v 1.834077 2.322435 -1.524404
v -0.000000 2.322435 -1.524404
vn 0.2588 0.9659 -0.0000
vn 0.2362 0.8814 0.4092
vn -0.2588 0.9659 -0.0000
vn -0.2362 0.8814 0.4092
vn 0.1737 0.6482 0.7414
vn -0.1737 0.6482 0.7414
vn -0.0000 -0.0000 1.0000
vn -0.4745 0.4745 0.7414
vn -0.6482 0.1737 0.7414
vn -0.8814 0.2362 0.4092
vn -0.6452 0.6452 0.4092
vn -0.9659 0.2588 -0.0000
vn -0.7071 0.7071 -0.0000
vn -0.8814 0.2362 -0.4092
vn -0.6452 0.6452 -0.4092
vn -0.6482 0.1737 -0.7414
vn -0.4745 0.4745 -0.7414
vn -0.0000 -0.0000 -1.0000
vn -0.1737 0.6482 -0.7414
vn 0.1737 0.6482 -0.7414
vn 0.2362 0.8814 -0.4092
vn -0.2362 0.8814 -0.4092
vn 0.7071 0.7071 -0.0000
vn 0.6452 0.6452 -0.4092
vn 0.9659 0.2588 -0.0000
vn 0.9659 -0.2588 -0.0000
vn 0.8814 0.2362 -0.4092
vn 0.8814 -0.2362 -0.4092
vn 0.6482 0.1737 -0.7414
vn 0.6482 -0.1737 -0.7414
vn 0.4745 -0.4745 -0.7414
vn 0.1737 -0.6482 -0.7414
vn 0.6452 -0.6452 -0.4092
vn 0.2362 -0.8814 -0.4092
vn 0.7071 -0.7071 -0.0000
vn 0.2588 -0.9659 -0.0000
vn -0.2588 -0.9659 -0.0000
vn -0.7071 -0.7071 -0.0000
vn -0.2362 -0.8814 -0.4092
vn -0.6452 -0.6452 -0.4092
vn -0.1737 -0.6482 -0.7414
vn -0.4745 -0.4745 -0.7414
vn -0.6482 -0.1737 -0.7414
vn -0.8814 -0.2362 -0.4092
vn -0.9659 -0.2588 -0.0000
vn -0.6452 -0.6452 0.4092
vn -0.8814 -0.2362 0.4092
vn -0.4745 -0.4745 0.7414
vn -0.6482 -0.1737 0.7414
vn -0.1737 -0.6482 0.7414
vn 0.1737 -0.6482 0.7414
vn 0.2362 -0.8814 0.4092
vn -0.2362 -0.8814 0.4092
vn 0.6452 -0.6452 0.4092
vn 0.4745 -0.4745 0.7414
vn 0.6482 -0.1737 0.7414
vn 0.8814 -0.2362 0.4092
vn 0.6482 0.1737 0.7414
vn 0.4745 0.4745 0.7414
vn 0.6452 0.6452 0.4092
vn 0.8814 0.2362 0.4092
vn 0.4745 0.4745 -0.7414
vn 0.0035 0.9994 -0.0341
vn 0.0047 1.0000 -0.0000
vn 0.0013 -0.0094 1.0000
vn -1.0000 -0.0000 -0.0000
vn 0.0072 -0.0000 1.0000
vn -0.0000 1.0000 -0.0000
vn -0.0000 0.9989 -0.0464
vn -0.0508 0.9987 -0.0000
vn -0.0379 0.9987 -0.0346
vn 0.0054 -0.9982 -0.0603
vn -0.0585 -0.9983 -0.0027
vn 0.0065 -1.0000 -0.0006
vn 0.0035 0.9994 0.0341
vn 0.9988 -0.0100 -0.0474
vn 0.9988 -0.0100 0.0475
vn -0.0000 0.9989 0.0464
vn -0.0379 0.9987 0.0346
vn 0.0054 -0.9982 0.0603
vn -0.0585 -0.9983 0.0027
vn 0.0065 -1.0000 0.0006
vn -0.9979 -0.0000 0.0645
vn -0.0773 -0.0000 0.9970
vn 0.9979 -0.0000 0.0645
vn -0.9979 -0.0000 -0.0645
vn -0.0773 -0.0000 -0.9970
vn 0.9979 -0.0000 -0.0645
vn 0.0052 0.0607 -0.9981
vn 0.9973 0.0561 -0.0479
vn 0.0058 -0.0018 1.0000
vn 0.9971 0.0756 -0.0000
vn -0.0019 -0.0066 -1.0000
vn -0.0000 0.0828 -0.9966
vn -0.0552 -0.0057 -0.9985
vn -0.9989 -0.0052 -0.0460
vn -0.0574 0.0614 -0.9965
vn -0.9973 0.0561 -0.0479
vn -0.9971 0.0756 -0.0000
vn -0.9999 -0.0100 0.0014
vn -0.9999 -0.0100 -0.0014
vn 0.0052 0.0607 0.9981
vn -0.0000 -0.9998 -0.0212
vn 0.9973 0.0561 0.0479
vn -0.0000 0.0828 0.9966
vn -0.0552 -0.0057 0.9985
vn -0.9973 0.0561 0.0479
vn -0.9989 -0.0052 0.0460
vn -0.0574 0.0614 0.9965
vn -0.0019 -0.0066 1.0000
vn -0.0504 -0.9977 -0.0461
vn -0.0504 -0.9977 0.0461
vn -0.0000 -1.0000 -0.0000
vn -0.0166 -0.0056 -0.9998
vn -0.9999 -0.0051 -0.0139
vn 0.9999 0.0104 0.0035
vn 0.0042 0.0114 0.9999
vn -0.0000 -0.9998 0.0212
vn -0.0166 -0.0056 0.9998
vn -0.9999 -0.0051 0.0139
vn 0.9999 0.0104 -0.0035
vn 0.0042 0.0114 -0.9999
vn 0.9999 -0.0136 -0.0000
vn -0.9983 0.0040 -0.0583
vn -0.9983 0.0040 0.0584
vn 0.0072 -0.0000 -1.0000
vn 0.0535 -0.0037 -0.9986
vn -0.0393 -0.0057 -0.9992
vn 0.0440 -0.0000 -0.9990
vn -0.0081 -0.0022 -1.0000
vn -0.0000 -0.1801 -0.9837
vn 0.0042 0.0750 -0.9972
vn 1.0000 -0.0000 -0.0000
vt 1.000000 0.750000
vt 1.000000 1.000000
vt 0.916667 1.000000
vt 0.916667 0.750000
vt 0.916667 1.000000
vt 0.083333 0.750000
vt 0.083333 1.000000
vt 0.000000 1.000000
vt 0.000000 0.750000
vt 0.384509 0.482977
vt 0.250000 0.519018
vt 0.115491 0.482977
vt 0.017023 0.384509
vt -0.019018 0.250000
vt 0.017023 0.115491
vt 0.115491 0.017023
vt 0.250000 -0.019018
vt 0.384509 0.017023
vt 0.482977 0.115491
vt 0.519018 0.250000
vt 0.482977 0.384509
vt 0.166667 1.000000
vt 0.250000 1.000000
vt 0.250000 1.000000
vt 0.250000 0.750000
vt 0.166667 0.750000
vt 0.833333 0.750000
vt 0.833333 1.000000
vt 0.750000 1.000000
vt 0.750000 0.750000
vt 0.666667 1.000000
vt 0.666667 0.750000
vt 0.583333 1.000000
vt 0.500000 1.000000
vt 0.583333 0.750000
vt 0.500000 0.750000
vt 0.416667 1.000000
vt 0.416667 0.750000
vt 0.333333 1.000000
vt 0.333333 0.750000
vt 0.625000 0.500000
vt 0.750000 0.500000
vt 0.750000 0.512857
vt 0.625000 0.512857
vt 0.625000 0.625000
vt 0.750000 0.625000
vt 0.500000 0.375000
vt 0.500000 0.500000
vt 0.362143 0.512857
vt 0.615894 0.500000
vt 0.615894 0.375000
vt 0.553605 0.375000
vt 0.553605 0.500000
vt 0.637857 0.512857
vt 0.637857 0.625000
vt 0.637856 0.500000
vt 0.362143 0.500000
vt 0.375000 0.512857
vt 0.500000 0.512857
vt 0.615894 0.512857
vt 0.553605 0.512857
vt 0.615894 0.487143
vt 0.553605 0.487143
vt 0.553605 0.625000
vt 0.615894 0.625000
vt 0.625000 0.375000
vt 0.500000 0.487143
vt 0.625000 0.487143
vt 0.500000 0.625000
vt 0.000000 0.000000
vt 0.375000 0.500000
vt 0.375000 0.487143
vt 0.501358 0.383373
vt 0.498820 0.491627
vt 0.500000 0.491627
vt 0.500000 0.383373
vt 0.549214 0.383373
vt 0.550092 0.491627
s 0
f 3/1/1 1/2/1 2/3/1 36/4/1
f 2/3/2 1/2/2 5/2/2 6/5/2
f 18/6/3 4/7/3 1/8/3 3/9/3
f 1/8/4 4/7/4 7/7/4 5/8/4
f 6/5/5 5/2/5 8/2/5 9/5/5
f 5/8/6 7/7/6 10/7/6 8/8/6
f 9/10/7 8/11/7 10/12/7 11/13/7 12/14/7 72/15/7 73/16/7 74/17/7 75/18/7 81/19/7 82/20/7 83/21/7
f 7/7/8 13/22/8 11/22/8 10/7/8
f 13/22/9 14/23/9 12/23/9 11/22/9
f 15/22/10 16/24/10 14/23/10 13/22/10
f 4/7/11 15/22/11 13/22/11 7/7/11
f 19/25/12 16/24/12 15/22/12 17/26/12
f 17/26/13 15/22/13 4/7/13 18/6/13
f 17/26/13 18/6/13 22/7/13 20/22/13
f 19/25/12 17/26/12 20/22/12 21/24/12
f 20/22/14 23/22/14 24/23/14 21/24/14
f 22/7/15 25/7/15 23/22/15 20/22/15
f 23/22/16 26/22/16 27/23/16 24/23/16
f 25/7/17 28/7/17 26/22/17 23/22/17
f 30/10/18 48/21/18 47/20/18 49/19/18 50/18/18 51/17/18 67/16/18 68/15/18 27/14/18 26/13/18 28/12/18 29/11/18
f 31/8/19 29/8/19 28/7/19 25/7/19
f 32/5/20 30/5/20 29/2/20 31/2/20
f 34/3/21 32/5/21 31/2/21 33/2/21
f 33/8/22 31/8/22 25/7/22 22/7/22
f 3/1/1 36/4/1 34/3/1 33/2/1
f 18/6/3 3/9/3 33/8/3 22/7/3
f 36/4/23 37/27/23 35/28/23 34/3/23
f 35/28/24 45/28/24 32/5/24 34/3/24
f 36/4/23 2/3/23 38/28/23 37/27/23
f 37/27/25 38/28/25 40/29/25 39/30/25
f 37/27/25 39/30/25 42/29/25 35/28/25
f 39/30/26 40/29/26 80/31/26 41/32/26
f 39/30/26 41/32/26 43/31/26 42/29/26
f 42/29/27 44/29/27 45/28/27 35/28/27
f 43/31/28 46/31/28 44/29/28 42/29/28
f 44/29/29 47/29/29 48/28/29 45/28/29
f 46/31/30 49/31/30 47/29/30 44/29/30
f 52/33/31 50/33/31 49/31/31 46/31/31
f 53/34/32 51/34/32 50/33/32 52/33/32
f 54/33/33 52/33/33 46/31/33 43/31/33
f 55/34/34 53/34/34 52/33/34 54/33/34
f 41/32/35 56/35/35 54/33/35 43/31/35
f 56/35/36 58/36/36 55/34/36 54/33/36
f 41/32/35 80/31/35 57/33/35 56/35/35
f 56/35/36 57/33/36 59/34/36 58/36/36
f 58/36/37 59/34/37 61/37/37 60/38/37
f 58/36/37 60/38/37 63/37/37 55/34/37
f 60/38/38 61/37/38 69/39/38 62/40/38
f 60/38/38 62/40/38 64/39/38 63/37/38
f 63/37/39 65/37/39 53/34/39 55/34/39
f 64/39/40 66/39/40 65/37/40 63/37/40
f 65/37/41 67/37/41 51/34/41 53/34/41
f 66/39/42 68/39/42 67/37/42 65/37/42
f 24/23/43 27/23/43 68/39/43 66/39/43
f 21/24/44 24/23/44 66/39/44 64/39/44
f 62/40/45 19/25/45 21/24/45 64/39/45
f 62/40/45 69/39/45 16/24/45 19/25/45
f 69/39/46 61/37/46 71/37/46 70/39/46
f 16/24/47 69/39/47 70/39/47 14/23/47
f 70/39/48 71/37/48 73/37/48 72/39/48
f 14/23/49 70/39/49 72/39/49 12/23/49
f 71/37/50 76/34/50 74/34/50 73/37/50
f 76/34/51 77/33/51 75/33/51 74/34/51
f 59/34/52 57/33/52 77/33/52 76/34/52
f 61/37/53 59/34/53 76/34/53 71/37/53
f 57/33/54 80/31/54 78/31/54 77/33/54
f 77/33/55 78/31/55 81/31/55 75/33/55
f 78/31/56 79/29/56 82/29/56 81/31/56
f 80/31/57 40/29/57 79/29/57 78/31/57
f 79/29/58 84/28/58 83/28/58 82/29/58
f 84/28/59 6/5/59 9/5/59 83/28/59
f 38/28/60 2/3/60 6/5/60 84/28/60
f 40/29/61 38/28/61 84/28/61 79/29/61
f 45/28/62 48/28/62 30/5/62 32/5/62
f 85/41/63 93/42/63 91/43/63 87/44/63
f 111/44/64 89/45/64 94/46/64 113/43/64
f 143/47/65 160/47/65 161/48/65 110/48/65
f 96/49/66 95/49/66 148/49/66 159/49/66
f 134/50/67 147/51/67 138/52/67 135/53/67
f 94/46/68 91/43/68 103/54/68 104/55/68
f 93/42/69 99/56/69 103/54/69 91/43/69
f 104/55/70 103/54/70 101/44/70 105/45/70
f 97/41/71 101/44/71 103/54/71 99/56/71
f 100/57/72 173/57/72 95/49/72 107/49/72
f 107/49/73 108/49/73 106/58/73 102/58/73
f 107/49/74 95/49/74 96/49/74 108/49/74
f 109/41/75 111/44/75 113/43/75 114/42/75
f 171/48/76 88/59/76 154/59/76 170/48/76
f 112/59/77 110/48/77 161/48/77 162/59/77
f 115/49/66 96/49/66 159/49/66 163/49/66
f 94/46/68 104/55/68 121/54/68 113/43/68
f 114/42/78 113/43/78 121/54/78 118/56/78
f 104/55/70 105/45/70 119/44/70 121/54/70
f 116/41/79 118/56/79 121/54/79 119/44/79
f 144/57/80 122/49/80 115/49/80 143/57/80
f 122/49/81 120/58/81 106/58/81 108/49/81
f 122/49/82 108/49/82 96/49/82 115/49/82
f 140/50/83 141/60/83 142/61/83 139/53/83
f 145/62/84 140/50/84 139/53/84 146/63/84
f 133/64/66 142/61/66 141/60/66 132/65/66
f 137/60/85 134/50/85 135/53/85 136/61/85
f 175/52/18 128/63/18 129/62/18 166/51/18
f 131/60/86 126/50/86 127/53/86 130/61/86
f 126/50/87 129/62/87 128/63/87 127/53/87
f 130/61/66 133/64/66 132/65/66 131/60/66
f 169/50/88 123/60/88 124/61/88 174/53/88
f 166/51/89 93/66/89 85/41/89 169/50/89
f 169/50/90 85/41/90 87/44/90 123/60/90
f 171/48/88 174/53/88 124/61/88 88/59/88
f 138/52/91 143/47/91 110/48/91 135/53/91
f 89/45/92 125/65/92 123/60/92 87/44/92
f 89/45/92 111/44/92 137/60/92 125/65/92
f 128/63/93 175/52/93 173/47/93 100/67/93
f 99/68/94 93/66/94 166/51/94 129/62/94
f 100/67/95 98/48/95 127/53/95 128/63/95
f 98/48/96 102/59/96 130/61/96 127/53/96
f 129/62/97 126/50/97 97/41/97 99/68/97
f 126/50/98 131/60/98 101/44/98 97/41/98
f 105/45/99 101/44/99 131/60/99 132/65/99
f 133/64/100 130/61/100 102/59/100 106/69/100
f 133/64/101 106/69/101 120/59/101 142/61/101
f 105/45/99 132/65/99 141/60/99 119/44/99
f 114/66/102 147/51/102 134/50/102 109/41/102
f 110/48/85 112/59/85 136/61/85 135/53/85
f 170/70/103 154/70/103 148/49/103 172/57/103
f 134/50/104 137/60/104 111/44/104 109/41/104
f 118/68/105 145/62/105 147/51/105 114/66/105
f 144/67/106 146/63/106 139/53/106 117/48/106
f 140/50/107 116/41/107 119/44/107 141/60/107
f 117/48/108 139/53/108 142/61/108 120/59/108
f 145/62/109 118/68/109 116/41/109 140/50/109
f 89/45/64 87/44/64 91/43/64 94/46/64
f 138/52/7 147/51/7 145/62/7 146/63/7
f 146/63/110 144/67/110 143/47/110 138/52/110
f 98/48/111 100/67/111 107/49/111 102/58/111
f 117/48/112 120/59/112 122/49/112 144/57/112
f 159/49/113 149/58/113 162/58/113 163/49/113
f 151/57/113 153/49/113 152/58/113 150/71/113
f 151/72/114 150/71/114 98/48/114 100/67/114
f 150/71/115 152/58/115 102/59/115 98/48/115
f 151/57/116 100/57/116 107/49/116 153/49/116
f 153/49/117 107/49/117 102/58/117 152/58/117
f 159/49/113 148/49/113 154/58/113 149/58/113
f 161/48/118 160/57/118 163/49/118 162/58/118
f 156/57/113 155/71/113 157/58/113 158/49/113
f 156/72/119 144/67/119 117/48/119 155/71/119
f 155/71/120 117/48/120 120/59/120 157/58/120
f 156/57/121 158/49/121 122/49/121 144/57/121
f 158/49/122 157/58/122 120/58/122 122/49/122
f 90/69/123 112/59/123 162/59/123 149/69/123
f 95/49/124 173/57/124 172/57/124 148/49/124
f 143/57/125 115/49/125 163/49/125 160/57/125
f 88/59/123 90/69/123 149/69/123 154/59/123
f 174/53/126 175/52/126 166/51/126 169/50/126
f 92/73/18 86/74/18 164/75/18 165/76/18
f 167/77/18 168/78/18 86/74/18 92/73/18
f 164/75/127 86/74/127 171/48/127 170/48/127
f 92/73/128 165/76/128 172/47/128 173/47/128
f 86/74/129 168/78/129 174/53/129 171/48/129
f 167/77/130 92/73/130 173/47/130 175/52/130
f 165/76/131 164/75/131 170/48/131 172/47/131
f 168/78/132 167/77/132 175/52/132 174/53/132
f 176/41/113 178/44/113 182/43/113 184/42/113
f 202/44/113 204/43/113 185/46/113 180/45/113
f 234/47/18 201/48/18 252/48/18 251/47/18
f 187/49/133 250/49/133 239/49/133 186/49/133
f 225/50/18 226/53/18 229/52/18 238/51/18
f 185/46/113 195/55/113 194/54/113 182/43/113
f 184/42/113 182/43/113 194/54/113 190/56/113
f 195/55/113 196/45/113 192/44/113 194/54/113
f 188/41/113 190/56/113 194/54/113 192/44/113
f 191/57/68 198/49/68 186/49/68 264/57/68
f 198/49/68 193/58/68 197/58/68 199/49/68
f 198/49/68 199/49/68 187/49/68 186/49/68
f 200/41/113 205/42/113 204/43/113 202/44/113
f 262/48/66 261/48/66 245/59/66 179/59/66
f 203/59/66 253/59/66 252/48/66 201/48/66
f 206/49/133 254/49/133 250/49/133 187/49/133
f 185/46/113 204/43/113 212/54/113 195/55/113
f 205/42/113 209/56/113 212/54/113 204/43/113
f 195/55/113 212/54/113 210/44/113 196/45/113
f 207/41/113 210/44/113 212/54/113 209/56/113
f 235/57/68 234/57/68 206/49/68 213/49/68
f 213/49/68 199/49/68 197/58/68 211/58/68
f 213/49/68 206/49/68 187/49/68 199/49/68
f 231/50/133 230/53/133 233/61/133 232/60/133
f 236/62/18 237/63/18 230/53/18 231/50/18
f 224/64/133 223/65/133 232/60/133 233/61/133
f 228/60/66 227/61/66 226/53/66 225/50/66
f 266/52/7 257/51/7 220/62/7 219/63/7
f 222/60/133 221/61/133 218/53/133 217/50/133
f 217/50/7 218/53/7 219/63/7 220/62/7
f 221/61/133 222/60/133 223/65/133 224/64/133
f 260/50/66 265/53/66 215/61/66 214/60/66
f 257/51/7 260/50/7 176/41/7 184/66/7
f 260/50/66 214/60/66 178/44/66 176/41/66
f 262/48/66 179/59/66 215/61/66 265/53/66
f 229/52/18 226/53/18 201/48/18 234/47/18
f 180/45/66 178/44/66 214/60/66 216/65/66
f 180/45/66 216/65/66 228/60/66 202/44/66
f 219/63/7 191/67/7 264/47/7 266/52/7
f 190/68/7 220/62/7 257/51/7 184/66/7
f 191/67/7 219/63/7 218/53/7 189/48/7
f 189/48/133 218/53/133 221/61/133 193/59/133
f 220/62/7 190/68/7 188/41/7 217/50/7
f 217/50/133 188/41/133 192/44/133 222/60/133
f 196/45/133 223/65/133 222/60/133 192/44/133
f 224/64/133 197/69/133 193/59/133 221/61/133
f 224/64/133 233/61/133 211/59/133 197/69/133
f 196/45/133 210/44/133 232/60/133 223/65/133
f 205/66/18 200/41/18 225/50/18 238/51/18
f 201/48/66 226/53/66 227/61/66 203/59/66
f 261/70/68 263/57/68 239/49/68 245/70/68
f 225/50/66 200/41/66 202/44/66 228/60/66
f 209/68/18 205/66/18 238/51/18 236/62/18
f 235/67/18 208/48/18 230/53/18 237/63/18
f 231/50/133 232/60/133 210/44/133 207/41/133
f 208/48/133 211/59/133 233/61/133 230/53/133
f 236/62/18 231/50/18 207/41/18 209/68/18
f 180/45/113 185/46/113 182/43/113 178/44/113
f 229/52/18 237/63/18 236/62/18 238/51/18
f 237/63/18 229/52/18 234/47/18 235/67/18
f 189/48/68 193/58/68 198/49/68 191/67/68
f 208/48/68 235/57/68 213/49/68 211/59/68
f 250/49/68 254/49/68 253/58/68 240/58/68
f 242/57/68 241/71/68 243/58/68 244/49/68
f 242/72/7 191/67/7 189/48/7 241/71/7
f 241/71/133 189/48/133 193/59/133 243/58/133
f 242/57/66 244/49/66 198/49/66 191/57/66
f 244/49/18 243/58/18 193/58/18 198/49/18
f 250/49/68 240/58/68 245/58/68 239/49/68
f 252/48/68 253/58/68 254/49/68 251/57/68
f 247/57/68 249/49/68 248/58/68 246/71/68
f 247/72/18 246/71/18 208/48/18 235/67/18
f 246/71/133 248/58/133 211/59/133 208/48/133
f 247/57/66 235/57/66 213/49/66 249/49/66
f 249/49/7 213/49/7 211/58/7 248/58/7
f 181/69/66 240/69/66 253/59/66 203/59/66
f 186/49/133 239/49/133 263/57/133 264/57/133
f 234/57/133 251/57/133 254/49/133 206/49/133
f 179/59/66 245/59/66 240/69/66 181/69/66
f 265/53/7 260/50/7 257/51/7 266/52/7
f 183/73/7 256/76/7 255/75/7 177/74/7
f 258/77/7 183/73/7 177/74/7 259/78/7
f 255/75/7 261/48/7 262/48/7 177/74/7
f 183/73/7 264/47/7 263/47/7 256/76/7
f 177/74/7 262/48/7 265/53/7 259/78/7
f 258/77/7 266/52/7 264/47/7 183/73/7
f 256/76/7 263/47/7 261/48/7 255/75/7
f 259/78/7 265/53/7 266/52/7 258/77/7
f 90/69/68 88/59/68 179/59/68 181/69/68
f 112/59/68 90/69/68 181/69/68 203/59/68
f 137/60/18 136/61/18 227/61/18 228/60/18
f 125/65/113 137/60/113 228/60/113 216/65/113
f 124/61/7 123/60/7 214/60/7 215/61/7
f 123/60/113 125/65/113 216/65/113 214/60/113
f 88/59/7 124/61/7 215/61/7 179/59/7
f 136/61/18 112/59/18 203/59/18 227/61/18
