# Blender 5.1.0
# www.blender.org
mtllib kiosk.mtl
o Cube.003
v 1.858186 2.786592 -1.550808
v 1.863604 2.790485 -1.367616
v 1.875834 0.876595 -1.367616
v 1.863604 2.790485 0.000000
v 1.875834 0.876595 0.000000
v 0.000000 2.799272 -1.367616
v 0.000000 2.790485 -1.556742
v 0.000000 2.799272 0.000000
v -1.416018 2.786592 -1.550808
v -1.421436 0.876595 -1.556742
v -1.248748 2.790485 -1.556742
v -1.248748 0.876595 -1.570136
v -1.421436 2.790485 -1.367616
v -1.433666 0.876595 -1.367616
v -1.248748 2.799272 -1.367616
v -1.248748 2.799272 0.000000
v -1.421436 2.790485 0.000000
v -1.433666 0.876595 0.110171
v 1.858186 2.786592 1.550808
v 1.863604 2.790485 1.367616
v 1.875834 0.876595 1.367616
v 0.000000 2.799272 1.367616
v 0.000000 2.790485 1.556742
v -1.416018 2.786592 1.550808
v -1.421436 0.876595 1.556742
v -1.248748 2.790485 1.556742
v -1.421436 2.790485 1.367616
v -1.433666 0.876595 1.257444
v -1.248748 2.799272 1.367616
v 1.875834 2.629275 -1.367616
v 1.875834 2.322435 -1.367616
v 1.875834 2.629275 0.000000
v -1.421436 2.629275 -1.556742
v -1.421436 2.322435 -1.556742
v -1.248748 2.322435 -1.570136
v -1.248748 2.629275 -1.570136
v -1.433666 2.322435 -1.367616
v -1.433666 2.629275 -1.367616
v -1.433666 2.629275 0.000000
v -1.433666 2.250164 0.110171
v 1.863604 2.629275 1.556742
v 1.875834 2.322435 1.367616
v 1.875834 2.629275 1.367616
v -1.248748 2.322435 1.570136
v -1.421436 2.322435 1.556742
v -1.421436 2.629275 1.556742
v -1.433666 2.629275 1.367616
v -1.433666 2.250164 1.257444
v -1.248748 0.876595 1.570136
v 0.000000 2.629275 1.570136
v 0.000000 -0.030000 -1.367616
v 1.863604 -0.021213 0.000000
v -1.416018 -0.017321 -1.550808
v -1.248748 -0.021213 -1.556742
v -1.421436 -0.021213 -1.367616
v -1.248748 -0.030000 -1.367616
v 1.863604 -0.021213 -1.367616
v -1.416018 -0.017321 1.550808
v -1.248748 -0.021213 1.556742
v -1.433666 0.072272 1.257444
v -1.248748 -0.030000 1.367616
v 0.000000 -0.030000 0.000000
v 0.000000 -0.021213 1.556742
v 1.858186 -0.017321 1.550808
v 1.863604 -0.021213 1.367616
v 0.000000 -0.030000 1.367616
v 0.000000 2.629275 -1.570136
v 1.863604 2.629275 -1.556742
v 1.858186 -0.017321 -1.550808
v 1.709713 0.965943 -1.570136
v 0.000000 -0.021213 -1.556742
v 0.124364 0.965943 -1.570136
v 1.709713 2.233088 -1.570136
v 0.124364 2.233088 -1.570136
v -1.433666 0.072272 0.110171
v -1.248748 -0.030000 0.000000
v -1.248748 2.629275 1.570136
v 0.124364 2.233088 1.570136
v 0.124364 0.965943 1.570136
v 1.709713 2.233088 1.570136
v 1.709713 0.965943 1.570136
v -1.433666 2.322435 0.000000
v -1.433666 2.322435 1.367616
v -1.433666 0.876595 0.000000
v -1.433666 0.876595 1.367616
v -1.421436 -0.021213 1.367616
v -1.421436 -0.021213 0.000000
v 0.000000 2.322435 1.570136
v -0.000000 0.876595 1.570136
v 1.863603 2.322435 1.556742
v 1.863603 2.322435 -1.556742
v 1.863603 0.876595 -1.556742
v -0.000000 0.876595 -1.570136
v 0.000000 2.322435 -1.570136
v 1.863603 0.876595 1.556742
v 1.875834 2.322435 0.000000
v 1.834077 2.769272 -1.524404
v 1.834077 2.769272 -1.367616
v 1.834077 0.876595 -1.367616
v 1.834077 2.769272 0.000000
v 1.834077 0.876595 0.000000
v 0.000000 2.769272 -1.367616
v 0.000000 2.769272 -1.524404
v 0.000000 2.769272 0.000000
v -1.391909 2.769272 -1.524404
v -1.391909 0.876595 -1.524404
v -1.248748 2.769272 -1.524404
v -1.248748 0.876595 -1.524404
v -1.391909 2.769272 -1.367616
v -1.391909 0.876595 -1.367616
v -1.248748 2.769272 -1.367616
v -1.248748 2.769272 0.000000
v -1.391909 2.769272 0.000000
v -1.391909 0.876595 0.110171
v 1.834077 2.769272 1.524404
v 1.834077 2.769272 1.367616
v 1.834077 0.876595 1.367616
v 0.000000 2.769272 1.367616
v 0.000000 2.769272 1.524404
v -1.391909 2.769272 1.524404
v -1.391909 0.876595 1.524404
v -1.248748 2.769272 1.524404
v -1.391909 2.769272 1.367616
v -1.391909 0.876595 1.257444
v -1.248748 2.769272 1.367616
v 1.834077 2.629275 -1.367616
v 1.834077 2.322435 -1.367616
v 1.834077 2.629275 0.000000
v -1.391909 2.629275 -1.524404
v -1.391909 2.322435 -1.524404
v -1.248748 2.322435 -1.524404
v -1.248748 2.629275 -1.524404
v -1.391909 2.322435 -1.367616
v -1.391909 2.629275 -1.367616
v -1.391909 2.629275 0.000000
v -1.391909 2.250164 0.110171
v 1.834077 2.629275 1.524404
v 1.834077 2.322435 1.367616
v 1.834077 2.629275 1.367616
v -1.248748 2.322435 1.524404
v -1.391909 2.322435 1.524404
v -1.391909 2.629275 1.524404
v -1.391909 2.629275 1.367616
v -1.391909 2.250164 1.257444
v -1.248748 0.876595 1.524404
v 0.000000 2.629275 1.524404
v 0.000000 0.000000 -1.367616
v 1.834077 0.000000 0.000000
v -1.391909 0.000000 -1.524404
v -1.248748 0.000000 -1.524404
v -1.391909 0.000000 -1.367616
v -1.248748 0.000000 -1.367616
v 1.834077 0.000000 -1.367616
v -1.391909 0.000000 1.524404
v -1.248748 0.000000 1.524404
v -1.391909 0.072272 1.257444
v -1.248748 0.000000 1.367616
v 0.000000 0.000000 0.000000
v 0.000000 0.000000 1.524404
v 1.834077 0.000000 1.524404
v 1.834077 0.000000 1.367616
v 0.000000 0.000000 1.367616
v 0.000000 2.629275 -1.524404
v 1.834077 2.629275 -1.524404
v 1.834077 0.000000 -1.524404
v 1.709713 0.965943 -1.524404
v 0.000000 0.000000 -1.524404
v 0.124364 0.965943 -1.524404
v 1.709713 2.233088 -1.524404
v 0.124364 2.233088 -1.524404
v -1.391909 0.072272 0.110171
v -1.248748 0.000000 0.000000
v -1.248748 2.629275 1.524404
v 0.124364 2.233088 1.524404
v 0.124364 0.965943 1.524404
v 1.709713 2.233088 1.524404
v 1.709713 0.965943 1.524404
v -1.391909 2.322435 0.000000
v -1.391909 2.322435 1.367616
v -1.391909 0.876595 0.000000
v -1.391909 0.876595 1.367616
v -1.391909 0.000000 1.367616
v -1.391909 0.000000 0.000000
v 0.000000 2.322435 1.524404
v -0.000000 0.876595 1.524404
v 1.834077 2.322435 1.524404
v 1.834077 2.322435 -1.524404
v 1.834077 0.876595 -1.524404
v -0.000000 0.876595 -1.524404
v 0.000000 2.322435 -1.524404
v 1.834077 0.876595 1.524404
v 1.834077 2.322435 0.000000
vn 0.0035 0.9994 -0.0341
vn 0.0047 1.0000 -0.0000
vn -0.0574 0.0614 0.9965
vn -0.0000 0.0828 0.9966
vn -0.0000 1.0000 -0.0000
vn -0.0000 0.9989 -0.0464
vn -0.0508 0.9987 -0.0000
vn -0.0379 0.9987 -0.0346
vn 0.0035 0.9994 0.0341
vn 0.9988 -0.0100 -0.0475
vn 0.9988 -0.0100 0.0475
vn -0.0000 0.9989 0.0464
vn -0.0379 0.9987 0.0346
vn -0.9979 -0.0000 0.0645
vn 0.0052 0.0607 0.9981
vn -1.0000 -0.0000 -0.0000
vn 0.9979 -0.0000 0.0645
vn -0.0000 -0.0000 -1.0000
vn -0.9979 -0.0000 -0.0645
vn -0.0773 -0.0000 -0.9970
vn 0.9979 -0.0000 -0.0645
vn 0.0052 0.0607 -0.9981
vn 0.9973 0.0561 -0.0479
vn -0.0773 -0.0000 0.9970
vn 0.9971 0.0756 -0.0000
vn -0.0000 0.0828 -0.9966
vn -0.0574 0.0614 -0.9965
vn -0.9973 0.0561 -0.0479
vn -0.9971 0.0756 -0.0000
vn -0.0000 -0.0000 1.0000
vn 0.0035 -0.9994 -0.0341
vn 0.9973 0.0561 0.0479
vn 0.0072 -0.0000 1.0000
vn -0.9973 0.0561 0.0479
vn -0.0569 -0.0109 0.9983
vn 0.0047 -1.0000 -0.0000
vn -0.0379 -0.9987 -0.0346
vn -0.0000 -0.0149 0.9999
vn 0.0052 -0.0108 0.9999
vn 0.0035 -0.9994 0.0341
vn -0.0379 -0.9987 0.0346
vn -0.9988 -0.0100 0.0475
vn -0.0000 -0.9989 0.0464
vn -0.0000 -0.0149 -0.9999
vn -0.9988 -0.0100 -0.0475
vn 0.9999 -0.0136 -0.0000
vn -0.0569 -0.0109 -0.9983
vn -0.0000 -0.9989 -0.0464
vn 0.0072 -0.0000 -1.0000
vn 0.0052 -0.0108 -0.9999
vn -0.9999 -0.0136 -0.0000
vn -0.0508 -0.9987 -0.0000
vn -0.0000 -1.0000 -0.0000
vn 1.0000 -0.0000 -0.0000
vn -0.9986 -0.0072 0.0524
vn -0.9986 -0.0072 -0.0524
vn -0.9916 -0.1297 -0.0000
vn 0.0039 0.0741 0.9972
vn 0.0867 -0.0000 -0.9962
vn 0.0867 -0.0000 0.9962
vn 0.0039 -0.0741 0.9972
vn 0.0039 0.0741 -0.9972
vn 0.0039 -0.0741 -0.9972
vt 0.625000 0.500000
vt 0.750000 0.500000
vt 0.750000 0.512857
vt 0.625000 0.512857
vt 0.625000 0.625000
vt 0.750000 0.625000
vt 0.637856 0.500000
vt 0.615894 0.500000
vt 0.590421 0.500000
vt 0.636039 0.500000
vt 0.637857 0.512857
vt 0.637857 0.625000
vt 0.500000 0.500000
vt 0.500000 0.512857
vt 0.615894 0.512857
vt 0.553605 0.512857
vt 0.553605 0.500000
vt 0.553605 0.625000
vt 0.615894 0.625000
vt 0.553605 0.375000
vt 0.553605 0.487143
vt 0.615894 0.487143
vt 0.615894 0.375000
vt 0.625000 0.375000
vt 0.528379 0.500000
vt 0.500000 0.375000
vt 0.440534 0.492689
vt 0.625000 0.487143
vt 0.446079 0.500000
vt 0.446079 0.512857
vt 0.469959 0.625000
vt 0.554766 0.500000
vt 0.000000 0.000000
vt 0.362143 0.512857
vt 0.362143 0.500000
vt 0.462615 0.500000
vt 0.477821 0.500000
vt 0.375000 0.500000
vt 0.375000 0.512857
vt 0.500000 0.625000
vt 0.365358 0.512857
vt 0.549139 0.615966
vt 0.548515 0.521891
vt 0.468035 0.615966
vt 0.380860 0.512857
vt 0.380860 0.512857
vt 0.483785 0.500000
vt 0.550228 0.500000
vt 0.550076 0.500000
vt 0.503313 0.491524
vt 0.550293 0.491524
vt 0.550293 0.383476
vt 0.503313 0.383476
vt 0.502104 0.500000
s 0
f 1/1/1 7/2/1 6/3/1 2/4/1
f 20/4/2 4/5/2 8/6/2 22/3/2
f 26/7/3 24/1/3 46/8/3 77/9/3
f 23/2/4 26/7/4 77/9/4 50/10/4
f 8/6/5 6/3/5 15/11/5 16/12/5
f 7/2/6 11/7/6 15/11/6 6/3/6
f 16/12/7 15/11/7 13/4/7 17/5/7
f 9/1/8 13/4/8 15/11/8 11/7/8
f 19/1/9 20/4/9 22/3/9 23/2/9
f 92/13/10 3/14/10 57/14/10 69/13/10
f 21/14/11 95/13/11 64/13/11 65/14/11
f 8/6/5 16/12/5 29/11/5 22/3/5
f 23/2/12 22/3/12 29/11/12 26/7/12
f 16/12/7 17/5/7 27/4/7 29/11/7
f 24/1/13 26/7/13 29/11/13 27/4/13
f 46/8/14 47/15/14 83/16/14 45/17/14
f 19/1/15 23/2/15 50/10/15 41/8/15
f 82/18/16 83/16/16 47/15/16 39/19/16
f 43/15/17 41/8/17 90/17/17 42/16/17
f 94/20/18 35/21/18 36/22/18 67/23/18
f 38/15/19 33/8/19 34/17/19 37/16/19
f 33/8/20 36/22/20 35/21/20 34/17/20
f 37/16/16 82/18/16 39/19/16 38/15/16
f 68/8/21 30/15/21 31/16/21 91/17/21
f 67/23/22 7/24/22 1/1/22 68/8/22
f 68/8/23 1/1/23 2/4/23 30/15/23
f 92/13/21 91/17/21 31/16/21 3/14/21
f 77/9/24 46/8/24 45/17/24 44/25/24
f 4/5/25 32/19/25 30/15/25 2/4/25
f 4/5/25 20/4/25 43/15/25 32/19/25
f 35/21/18 94/20/18 93/26/18 12/27/18
f 11/28/26 7/24/26 67/23/26 36/22/26
f 12/27/20 10/29/20 34/17/20 35/21/20
f 10/29/19 14/30/19 37/16/19 34/17/19
f 36/22/27 33/8/27 9/1/27 11/28/27
f 33/8/28 38/15/28 13/4/28 9/1/28
f 17/5/29 13/4/29 38/15/29 39/19/29
f 82/18/16 37/16/16 14/30/16 84/31/16
f 17/5/29 39/19/29 47/15/29 27/4/29
f 50/10/30 77/9/30 44/25/30 88/32/30
f 95/13/17 21/14/17 42/16/17 90/17/17
f 69/33/31 57/33/31 51/34/31 71/35/31
f 41/8/32 43/15/32 20/4/32 19/1/32
f 41/8/33 50/10/33 88/32/33 90/17/33
f 44/25/24 45/17/24 25/29/24 49/36/24
f 46/8/34 24/1/34 27/4/34 47/15/34
f 25/29/14 45/17/14 83/16/14 85/30/14
f 88/32/30 44/25/30 49/36/30 89/37/30
f 4/5/2 2/4/2 6/3/2 8/6/2
f 49/36/35 25/29/35 58/38/35 59/35/35
f 62/34/36 52/39/36 65/39/36 66/34/36
f 54/35/37 56/34/37 55/39/37 53/38/37
f 89/37/38 49/36/38 59/35/38 63/35/38
f 95/13/39 89/37/39 63/35/39 64/13/39
f 62/34/36 51/34/36 57/39/36 52/39/36
f 64/13/40 63/35/40 66/34/40 65/39/40
f 59/35/41 58/38/41 86/39/41 61/34/41
f 58/38/42 25/29/42 85/30/42 86/39/42
f 61/34/43 66/34/43 63/35/43 59/35/43
f 93/26/44 71/26/44 54/35/44 12/27/44
f 14/30/45 10/29/45 53/38/45 55/39/45
f 5/40/46 21/14/46 65/14/46 52/40/46
f 10/29/47 12/27/47 54/35/47 53/38/47
f 56/34/48 54/35/48 71/35/48 51/34/48
f 3/14/46 5/40/46 52/40/46 57/14/46
f 91/17/49 94/20/49 67/23/49 68/8/49
f 71/35/50 93/26/50 92/13/50 69/33/50
f 14/30/51 55/39/51 87/39/51 84/30/51
f 56/34/52 76/41/52 87/39/52 55/39/52
f 76/41/52 61/34/52 86/39/52 87/39/52
f 51/34/53 62/34/53 76/41/53 56/34/53
f 62/34/53 66/34/53 61/34/53 76/41/53
f 43/15/54 42/16/54 96/16/54 32/19/54
f 40/42/16 48/43/16 83/16/16 82/18/16
f 18/44/16 40/42/16 82/18/16 84/31/16
f 48/43/16 28/30/16 85/30/16 83/16/16
f 28/30/55 60/45/55 86/39/55 85/30/55
f 75/46/56 18/30/56 84/30/56 87/39/56
f 60/45/57 75/46/57 87/39/57 86/39/57
f 79/47/30 78/48/30 88/32/30 89/37/30
f 78/48/58 80/49/58 90/17/58 88/32/58
f 70/50/59 73/51/59 91/17/59 92/13/59
f 74/52/18 72/53/18 93/26/18 94/20/18
f 80/49/60 81/54/60 95/13/60 90/17/60
f 81/54/61 79/47/61 89/37/61 95/13/61
f 73/51/62 74/52/62 94/20/62 91/17/62
f 72/53/63 70/50/63 92/13/63 93/26/63
f 32/19/54 96/16/54 31/16/54 30/15/54
f 97/1/53 98/4/53 102/3/53 103/2/53
f 116/4/53 118/3/53 104/6/53 100/5/53
f 122/7/18 173/9/18 142/8/18 120/1/18
f 119/2/18 146/10/18 173/9/18 122/7/18
f 104/6/53 112/12/53 111/11/53 102/3/53
f 103/2/53 102/3/53 111/11/53 107/7/53
f 112/12/53 113/5/53 109/4/53 111/11/53
f 105/1/53 107/7/53 111/11/53 109/4/53
f 115/1/53 119/2/53 118/3/53 116/4/53
f 188/13/16 165/13/16 153/14/16 99/14/16
f 117/14/16 161/14/16 160/13/16 191/13/16
f 104/6/53 118/3/53 125/11/53 112/12/53
f 119/2/53 122/7/53 125/11/53 118/3/53
f 112/12/53 125/11/53 123/4/53 113/5/53
f 120/1/53 123/4/53 125/11/53 122/7/53
f 142/8/54 141/17/54 179/16/54 143/15/54
f 115/1/18 137/8/18 146/10/18 119/2/18
f 178/18/54 135/19/54 143/15/54 179/16/54
f 139/15/16 138/16/16 186/17/16 137/8/16
f 190/20/30 163/23/30 132/22/30 131/21/30
f 134/15/54 133/16/54 130/17/54 129/8/54
f 129/8/30 130/17/30 131/21/30 132/22/30
f 133/16/54 134/15/54 135/19/54 178/18/54
f 164/8/16 187/17/16 127/16/16 126/15/16
f 163/23/30 164/8/30 97/1/30 103/24/30
f 164/8/16 126/15/16 98/4/16 97/1/16
f 188/13/16 99/14/16 127/16/16 187/17/16
f 173/9/18 140/25/18 141/17/18 142/8/18
f 100/5/16 98/4/16 126/15/16 128/19/16
f 100/5/16 128/19/16 139/15/16 116/4/16
f 131/21/30 108/27/30 189/26/30 190/20/30
f 107/28/30 132/22/30 163/23/30 103/24/30
f 108/27/30 131/21/30 130/17/30 106/29/30
f 106/29/54 130/17/54 133/16/54 110/30/54
f 132/22/30 107/28/30 105/1/30 129/8/30
f 129/8/54 105/1/54 109/4/54 134/15/54
f 113/5/54 135/19/54 134/15/54 109/4/54
f 178/18/54 180/31/54 110/30/54 133/16/54
f 113/5/54 123/4/54 143/15/54 135/19/54
f 146/10/18 184/32/18 140/25/18 173/9/18
f 191/13/16 186/17/16 138/16/16 117/14/16
f 165/33/5 167/35/5 147/34/5 153/33/5
f 137/8/16 115/1/16 116/4/16 139/15/16
f 137/8/18 186/17/18 184/32/18 146/10/18
f 140/25/18 145/36/18 121/29/18 141/17/18
f 142/8/54 143/15/54 123/4/54 120/1/54
f 121/29/54 181/30/54 179/16/54 141/17/54
f 184/32/18 185/37/18 145/36/18 140/25/18
f 100/5/53 104/6/53 102/3/53 98/4/53
f 145/36/18 155/35/18 154/38/18 121/29/18
f 158/34/5 162/34/5 161/39/5 148/39/5
f 150/35/5 149/38/5 151/39/5 152/34/5
f 185/37/18 159/35/18 155/35/18 145/36/18
f 191/13/18 160/13/18 159/35/18 185/37/18
f 158/34/5 148/39/5 153/39/5 147/34/5
f 160/13/5 161/39/5 162/34/5 159/35/5
f 155/35/5 157/34/5 182/39/5 154/38/5
f 154/38/54 182/39/54 181/30/54 121/29/54
f 157/34/5 155/35/5 159/35/5 162/34/5
f 189/26/30 108/27/30 150/35/30 167/26/30
f 110/30/54 151/39/54 149/38/54 106/29/54
f 101/40/16 148/40/16 161/14/16 117/14/16
f 106/29/30 149/38/30 150/35/30 108/27/30
f 152/34/5 147/34/5 167/35/5 150/35/5
f 99/14/16 153/14/16 148/40/16 101/40/16
f 187/17/30 164/8/30 163/23/30 190/20/30
f 167/35/30 165/33/30 188/13/30 189/26/30
f 110/30/54 180/30/54 183/39/54 151/39/54
f 152/34/5 151/39/5 183/39/5 172/41/5
f 172/41/5 183/39/5 182/39/5 157/34/5
f 147/34/5 152/34/5 172/41/5 158/34/5
f 158/34/5 172/41/5 157/34/5 162/34/5
f 139/15/16 128/19/16 192/16/16 138/16/16
f 136/42/54 178/18/54 179/16/54 144/43/54
f 114/44/54 180/31/54 178/18/54 136/42/54
f 144/43/54 179/16/54 181/30/54 124/30/54
f 124/30/54 181/30/54 182/39/54 156/45/54
f 171/46/54 183/39/54 180/30/54 114/30/54
f 156/45/54 182/39/54 183/39/54 171/46/54
f 175/47/18 185/37/18 184/32/18 174/48/18
f 174/48/18 184/32/18 186/17/18 176/49/18
f 166/50/30 188/13/30 187/17/30 169/51/30
f 170/52/30 190/20/30 189/26/30 168/53/30
f 176/49/18 186/17/18 191/13/18 177/54/18
f 177/54/18 191/13/18 185/37/18 175/47/18
f 169/51/30 187/17/30 190/20/30 170/52/30
f 168/53/30 189/26/30 188/13/30 166/50/30
f 128/19/16 126/15/16 127/16/16 192/16/16
f 5/40/5 3/14/5 99/14/5 101/40/5
f 21/14/5 5/40/5 101/40/5 117/14/5
f 3/14/30 31/16/30 127/16/30 99/14/30
f 42/16/18 21/14/18 117/14/18 138/16/18
f 48/43/53 40/42/53 136/42/53 144/43/53
f 40/42/30 18/44/30 114/44/30 136/42/30
f 28/30/18 48/43/18 144/43/18 124/30/18
f 60/45/18 28/30/18 124/30/18 156/45/18
f 18/30/30 75/46/30 171/46/30 114/30/30
f 75/46/5 60/45/5 156/45/5 171/46/5
f 78/48/54 79/47/54 175/47/54 174/48/54
f 80/49/53 78/48/53 174/48/53 176/49/53
f 73/51/16 70/50/16 166/50/16 169/51/16
f 72/53/54 74/52/54 170/52/54 168/53/54
f 81/54/16 80/49/16 176/49/16 177/54/16
f 79/47/5 81/54/5 177/54/5 175/47/5
f 74/52/53 73/51/53 169/51/53 170/52/53
f 70/50/5 72/53/5 168/53/5 166/50/5
f 31/16/53 96/16/53 192/16/53 127/16/53
f 96/16/53 42/16/53 138/16/53 192/16/53
