# Blender 5.1.0
# www.blender.org
mtllib kiosk.mtl
o Cube.003
v 1.834077 2.769272 0.000000
v 1.834077 0.876595 0.000000
v 0.476078 2.769272 0.000000
v -0.475976 2.680417 0.135450
v 1.834077 2.769272 1.524404
v 0.476078 2.769272 1.524404
v -0.475976 2.680417 1.388954
v -0.475976 0.876595 1.388954
v -0.475976 2.322435 1.388954
v 1.834077 0.000000 0.000000
v -0.475976 0.088854 1.388954
v 0.476078 0.000000 0.000000
v 0.476078 0.000000 1.524404
v 1.834077 0.000000 1.524404
v -0.475976 2.322435 0.000000
v -0.475976 0.876595 0.135450
v -0.475976 0.088854 0.135450
v 0.476078 2.322435 1.524404
v 0.476078 0.876595 1.524404
v 1.834077 2.322435 1.524404
v 1.834077 0.876595 1.524404
v 1.834077 2.322435 0.000000
v 0.476078 2.322435 0.000000
v 0.476078 0.876595 0.000000
v 1.834077 0.941022 1.426191
v 1.834077 2.258008 1.426191
v 1.834077 2.258008 0.098213
v 1.834077 0.941022 0.098213
v 0.565755 2.258008 1.524404
v 1.744400 2.258008 1.524404
v 1.744400 0.941022 1.524404
v 0.565755 0.941022 1.524404
v 0.565755 2.258008 0.000000
v 0.565755 0.941022 0.000000
v 1.744400 0.941022 0.000000
v 1.744400 2.258008 0.000000
v -0.475976 2.769272 0.000000
v -0.475976 2.769272 1.524404
v -0.475976 2.322435 0.135450
v -0.475976 0.876595 0.000000
v -0.475976 2.322435 1.524404
v -0.475976 0.876595 1.524404
v -0.475976 0.000000 1.524404
v -0.475976 0.000000 0.000000
v 1.865875 2.827008 -0.035877
v 1.865875 0.876595 -0.035877
v 0.476078 2.830901 -0.035877
v -0.510264 2.680417 0.135450
v 1.865875 2.827008 1.560281
v 0.476078 2.830901 1.560281
v -0.510264 2.680417 1.388954
v -0.510264 0.876595 1.388954
v -0.510264 2.322435 1.388954
v 1.865875 -0.000000 -0.035877
v -0.510264 0.088854 1.388954
v 0.476078 -0.003893 -0.035877
v 0.476078 -0.003893 1.560281
v 1.865875 -0.000000 1.560281
v -0.510264 2.322435 -0.035877
v -0.510264 0.876595 0.135450
v -0.510264 0.088854 0.135450
v 0.476078 2.322435 1.560281
v 0.476078 0.876595 1.560281
v 1.865875 2.322435 1.560281
v 1.865875 0.876595 1.560281
v 1.865875 2.322435 -0.035877
v 0.476078 2.322435 -0.035877
v 0.476078 0.876595 -0.035877
v 1.865875 0.941022 1.426191
v 1.865875 2.258008 1.426191
v 1.865875 2.258008 0.098213
v 1.865875 0.941022 0.098213
v 0.565755 2.258008 1.560281
v 1.744400 2.258008 1.560281
v 1.744400 0.941022 1.560281
v 0.565755 0.941022 1.560281
v 0.565755 2.258008 -0.035877
v 0.565755 0.941022 -0.035877
v 1.744400 0.941022 -0.035877
v 1.744400 2.258008 -0.035877
v -0.510264 2.827008 -0.035877
v -0.510264 2.827008 1.560281
v -0.510264 2.322435 0.135450
v -0.510264 0.876595 -0.035877
v -0.510264 2.322435 1.560281
v -0.510264 0.876595 1.560281
v -0.510264 0.000000 1.560281
v -0.510264 0.000000 -0.035877
vn -0.0000 -0.0000 -1.0000
vn -0.0000 -1.0000 -0.0000
vn -1.0000 -0.0000 -0.0000
vn -0.0000 -0.0000 1.0000
vn -0.0000 1.0000 -0.0000
vn 1.0000 -0.0000 -0.0000
vn -0.0039 1.0000 -0.0000
vn 0.0028 1.0000 -0.0000
vt 0.328072 0.584353
vt 0.126934 0.584353
vt 0.126934 0.489200
vt 0.328072 0.489200
vt 0.328072 0.720079
vt 0.390234 0.584353
vt 0.390234 0.720079
vt 0.614333 0.656641
vt 0.750059 0.656641
vt 0.750059 0.795756
vt 0.614333 0.795756
vt 0.937419 0.516984
vt 0.999580 0.516984
vt 0.999580 0.656099
vt 0.937419 0.656099
vt 0.736280 0.231150
vt 0.736280 0.135997
vt 0.937418 0.135997
vt 0.937418 0.231151
vt 0.390234 0.489200
vt 0.004987 0.584353
vt 0.004987 0.489200
vt 0.750058 0.796298
vt 0.845212 0.796298
vt 0.845212 0.935413
vt 0.750058 0.935413
vt 0.126934 0.720079
vt 0.004987 0.720079
vt 0.614332 0.935413
vt 0.614332 0.796298
vt 0.736280 0.656099
vt 0.614333 0.656099
vt 0.614333 0.516984
vt 0.736280 0.516984
vt 0.614333 0.135997
vt 0.614333 0.231150
vt 0.999580 0.135997
vt 0.937418 0.000271
vt 0.999580 0.000271
vt 0.845212 0.656641
vt 0.845212 0.795756
vt 0.614333 0.000271
vt 0.736280 0.000271
vt 0.928456 0.525947
vt 0.745243 0.525947
vt 0.928456 0.647136
vt 0.745243 0.647136
vt 0.319110 0.711116
vt 0.319110 0.593316
vt 0.135897 0.711116
vt 0.135897 0.593316
vt 0.745243 0.127034
vt 0.928456 0.127034
vt 0.745243 0.009234
vt 0.928456 0.009234
vt 0.999580 0.231151
vt 0.987219 0.504081
vt 0.987219 0.389688
vt 0.999580 0.377327
vt 0.999580 0.516442
vt 0.937419 0.389688
vt 0.937419 0.377327
vt 0.736280 0.389688
vt 0.736280 0.377327
vt 0.736280 0.504081
vt 0.937419 0.504081
vt 0.937419 0.516442
vt 0.736280 0.516442
vt 0.626694 0.504081
vt 0.614333 0.516442
vt 0.626694 0.389688
vt 0.614333 0.377327
vt 0.328729 0.390521
vt 0.328758 0.488658
vt 0.127468 0.488658
vt 0.127509 0.390514
vt 0.328590 0.251902
vt 0.390743 0.252371
vt 0.391434 0.390481
vt 0.937533 0.376785
vt 0.937507 0.231693
vt 0.999704 0.232223
vt 0.999729 0.376232
vt 0.127448 0.014417
vt 0.328753 0.014417
vt 0.328707 0.112573
vt 0.127475 0.112556
vt 0.390945 0.488089
vt 0.005448 0.488030
vt 0.004987 0.390407
vt 0.127697 0.251817
vt 0.005687 0.252205
vt 0.736344 0.231692
vt 0.736370 0.376785
vt 0.614358 0.376264
vt 0.614333 0.232256
vt 0.004987 0.112632
vt 0.005461 0.015031
vt 0.391437 0.112629
vt 0.390708 0.250823
vt 0.328517 0.251275
vt 0.127613 0.251185
vt 0.005656 0.250768
vt 0.745421 0.364812
vt 0.928486 0.364803
vt 0.928457 0.243665
vt 0.745392 0.243674
vt 0.319749 0.381555
vt 0.319580 0.263857
vt 0.136708 0.263792
vt 0.136494 0.381548
vt 0.319721 0.121539
vt 0.136456 0.121523
vt 0.136623 0.239230
vt 0.319506 0.239300
vt 0.390959 0.014993
vt 0.378006 0.736242
vt 0.390481 0.721442
vt 0.390496 0.865192
vt 0.378030 0.850385
vt 0.328279 0.865906
vt 0.328251 0.850520
vt 0.126887 0.865906
vt 0.126906 0.850532
vt 0.126948 0.736000
vt 0.126932 0.720621
vt 0.328303 0.720707
vt 0.328271 0.736085
vt 0.017463 0.736250
vt 0.004987 0.721435
vt 0.005032 0.865083
vt 0.017482 0.850276
vt 0.000271 0.950109
vt 0.000271 0.835716
vt 0.004444 0.835716
vt 0.004444 0.950109
vt 0.000271 0.050072
vt 0.000271 0.000271
vt 0.004445 0.000271
vt 0.004445 0.050072
vt 0.000271 0.251210
vt 0.004445 0.251210
vt 0.000271 0.785915
vt 0.000271 0.584777
vt 0.004444 0.584777
vt 0.004444 0.785915
vt 0.000271 0.475190
vt 0.004444 0.475190
vt 0.000271 0.360797
vt 0.004444 0.360797
vt 0.000000 0.000000
s 0
usemtl Material
f 18/1/1 19/2/1 42/3/1 41/4/1
f 20/5/1 18/1/1 6/6/1 5/7/1
f 5/8/2 6/9/2 3/10/2 1/11/2
f 20/12/3 5/13/3 1/14/3 22/15/3
f 40/16/4 24/17/4 23/18/4 15/19/4
f 6/6/1 18/1/1 41/4/1 38/20/1
f 19/2/1 13/21/1 43/22/1 42/3/1
f 21/27/1 14/28/1 13/21/1 19/2/1
f 2/31/3 10/32/3 14/33/3 21/34/3
f 12/35/4 24/17/4 40/16/4 44/36/4
f 3/37/4 23/18/4 22/38/4 1/39/4
f 6/9/2 38/40/2 37/41/2 3/10/2
f 24/17/4 12/35/4 10/42/4 2/43/4
f 21/34/3 20/12/3 26/44/3 25/45/3
f 20/12/3 22/15/3 27/46/3 26/44/3
f 22/15/3 2/31/3 28/47/3 27/46/3
f 2/31/3 21/34/3 25/45/3 28/47/3
f 18/1/1 20/5/1 30/48/1 29/49/1
f 20/5/1 21/27/1 31/50/1 30/48/1
f 21/27/1 19/2/1 32/51/1 31/50/1
f 19/2/1 18/1/1 29/49/1 32/51/1
f 23/18/4 24/17/4 34/52/4 33/53/4
f 24/17/4 2/43/4 35/54/4 34/52/4
f 2/43/4 22/38/4 36/55/4 35/54/4
f 22/38/4 23/18/4 33/53/4 36/55/4
f 15/19/4 23/18/4 3/37/4 37/56/4
f 7/57/6 4/58/6 37/59/6 38/60/6
f 4/58/6 39/61/6 15/62/6 37/59/6
f 39/61/6 16/63/6 40/64/6 15/62/6
f 8/65/6 9/66/6 41/67/6 42/68/6
f 9/66/6 7/57/6 38/60/6 41/67/6
f 11/69/6 8/65/6 42/68/6 43/70/6
f 16/63/6 17/71/6 44/72/6 40/64/6
f 17/71/6 11/69/6 43/70/6 44/72/6
f 62/73/4 85/74/4 86/75/4 63/76/4
f 64/77/4 49/78/4 50/79/4 62/73/4
f 64/80/6 66/81/6 45/82/6 49/83/6
f 84/84/1 59/85/1 67/86/1 68/87/1
f 50/79/4 82/88/4 85/74/4 62/73/4
f 63/76/4 86/75/4 87/89/4 57/90/4
f 65/91/4 63/76/4 57/90/4 58/92/4
f 46/93/6 65/94/6 58/95/6 54/96/6
f 56/97/1 88/98/1 84/84/1 68/87/1
f 47/99/1 45/100/1 66/101/1 67/86/1
f 68/87/1 46/102/1 54/103/1 56/97/1
f 65/94/6 69/104/6 70/105/6 64/80/6
f 64/80/6 70/105/6 71/106/6 66/81/6
f 66/81/6 71/106/6 72/107/6 46/93/6
f 46/93/6 72/107/6 69/104/6 65/94/6
f 62/73/4 73/108/4 74/109/4 64/77/4
f 64/77/4 74/109/4 75/110/4 65/91/4
f 65/91/4 75/110/4 76/111/4 63/76/4
f 63/76/4 76/111/4 73/108/4 62/73/4
f 67/86/1 77/112/1 78/113/1 68/87/1
f 68/87/1 78/113/1 79/114/1 46/102/1
f 46/102/1 79/114/1 80/115/1 66/101/1
f 66/101/1 80/115/1 77/112/1 67/86/1
f 59/85/1 81/116/1 47/99/1 67/86/1
f 51/117/3 82/118/3 81/119/3 48/120/3
f 48/120/3 81/119/3 59/121/3 83/122/3
f 83/122/3 59/121/3 84/123/3 60/124/3
f 52/125/3 86/126/3 85/127/3 53/128/3
f 53/128/3 85/127/3 82/118/3 51/117/3
f 55/129/3 87/130/3 86/126/3 52/125/3
f 60/124/3 84/123/3 88/131/3 61/132/3
f 61/132/3 88/131/3 87/130/3 55/129/3
f 4/133/2 7/134/2 51/135/2 48/136/2
f 39/137/4 4/138/4 48/139/4 83/140/4
f 16/141/4 39/137/4 83/140/4 60/142/4
f 9/143/1 8/144/1 52/145/1 53/146/1
f 7/134/1 9/143/1 53/146/1 51/135/1
f 8/144/1 11/147/1 55/148/1 52/145/1
f 17/149/4 16/141/4 60/142/4 61/150/4
f 11/147/5 17/149/5 61/150/5 55/148/5
f 81/116/7 82/118/7 50/79/7 47/99/7
f 47/99/8 50/79/8 49/78/8 45/100/8
f 32/151/5 76/151/5 75/151/5 31/151/5
f 31/151/3 75/151/3 74/151/3 30/151/3
f 30/151/2 74/151/2 73/151/2 29/151/2
f 29/151/6 73/151/6 76/151/6 32/151/6
f 28/151/4 72/151/4 71/151/4 27/151/4
f 27/151/2 71/151/2 70/151/2 26/151/2
f 26/151/1 70/151/1 69/151/1 25/151/1
f 25/151/5 69/151/5 72/151/5 28/151/5
f 36/151/3 80/151/3 79/151/3 35/151/3
f 35/151/5 79/151/5 78/151/5 34/151/5
f 34/151/6 78/151/6 77/151/6 33/151/6
f 33/151/2 77/151/2 80/151/2 36/151/2
usemtl Material.001
f 12/23/5 44/24/5 43/25/5 13/26/5
f 14/29/5 10/30/5 12/23/5 13/26/5
