# Blender 5.1.0
# www.blender.org
mtllib monitor.mtl
o Cube.007
v -0.183497 0.105785 0.171380
v -0.100022 0.365449 0.171380
v -0.183497 0.105785 -0.171379
v -0.100022 0.365449 -0.171379
v -0.109582 0.209804 0.033966
v -0.092985 0.261430 0.033966
v -0.109582 0.209804 -0.033965
v -0.092985 0.261430 -0.033965
v -0.052667 0.386848 -0.198997
v -0.149900 0.084386 -0.198997
v -0.149900 0.084386 0.198997
v -0.052667 0.386848 0.198997
v 0.025812 0.261430 -0.033965
v -0.025813 0.209804 -0.033965
v -0.025813 0.209804 0.033966
v 0.025812 0.261430 0.033966
v 0.025812 0.033140 -0.033965
v -0.025813 0.033140 -0.033965
v -0.025813 0.033140 0.033966
v 0.025812 0.033140 0.033966
v 0.075977 0.000000 -0.099974
v -0.075977 0.000000 -0.099974
v -0.075977 0.000000 0.099975
v 0.075977 0.000000 0.099975
v -0.190377 0.084386 -0.198997
v -0.190377 0.084386 0.198997
v -0.093143 0.386848 0.198997
v -0.093143 0.386848 -0.198997
v -0.174377 0.102853 -0.171379
v -0.174377 0.102853 0.171380
v -0.090902 0.362517 0.171380
v -0.090902 0.362517 -0.171379
vn -0.3060 -0.9520 -0.0000
vn -0.0000 -0.0000 -1.0000
vn -0.0000 1.0000 -0.0000
vn -0.0000 -0.0000 1.0000
vn -0.0000 -1.0000 -0.0000
vn 0.9520 -0.3060 -0.0000
vn 1.0000 -0.0000 -0.0000
vn -0.0000 0.8937 0.4487
vn -1.0000 -0.0000 -0.0000
vn -0.5512 0.8344 -0.0000
vn 0.5512 0.8344 -0.0000
vn -0.0000 0.8937 -0.4487
vn -0.9520 0.3060 -0.0000
vn 0.3060 0.9520 -0.0000
vt 0.771818 0.455806
vt 0.771818 0.838553
vt 0.761120 0.838553
vt 0.761120 0.455806
vt 0.400198 0.043257
vt 0.045426 0.043257
vt 0.031593 0.000227
vt 0.386365 0.000227
vt 0.848129 0.832690
vt 0.772272 0.832690
vt 0.772272 0.700032
vt 0.848129 0.700032
vt 0.386365 0.530714
vt 0.031593 0.530714
vt 0.045426 0.487684
vt 0.400198 0.487684
vt 0.445397 0.043257
vt 0.445397 0.487684
vt 0.000227 0.043257
vt 0.000227 0.487684
vt 0.653514 0.184512
vt 0.592960 0.184512
vt 0.445851 0.000227
vt 0.800623 0.000227
vt 0.592960 0.260369
vt 0.445851 0.444654
vt 0.653514 0.260369
vt 0.800623 0.444654
vt 0.772272 0.445108
vt 0.848129 0.445108
vt 0.999773 0.642384
vt 0.981241 0.700032
vt 0.848583 0.700032
vt 0.906231 0.642384
vt 0.819609 0.255151
vt 0.801077 0.197503
vt 0.894619 0.197503
vt 0.952267 0.255151
vt 0.362190 0.821985
vt 0.286333 0.821985
vt 0.286333 0.728444
vt 0.362190 0.728444
vt 0.000227 0.566863
vt 0.045496 0.531168
vt 0.140551 0.561250
vt 0.007307 0.666313
vt 0.848583 0.445108
vt 0.906231 0.445108
vt 0.894619 0.000227
vt 0.952267 0.000227
vt 0.286333 0.531168
vt 0.362190 0.531168
vt 0.278798 0.736579
vt 0.145554 0.841642
vt 0.238910 0.577562
vt 0.285878 0.637128
vt 0.047195 0.825330
vt 0.000227 0.765764
vt 0.285879 0.836029
vt 0.240610 0.871723
vt 0.375098 0.456844
vt 0.375098 0.074097
vt 0.070526 0.456844
vt 0.070526 0.074097
vt 0.456548 0.455806
vt 0.456548 0.838553
vt 0.445851 0.838553
vt 0.445851 0.455806
vt 0.761120 0.849251
vt 0.456548 0.849251
vt 0.456548 0.445108
vt 0.761120 0.445108
s 0
f 2/1/1 4/2/1 32/3/1 31/4/1
f 25/5/2 28/6/2 9/7/2 10/8/2
f 8/9/3 6/10/3 16/11/3 13/12/3
f 11/13/4 12/14/4 27/15/4 26/16/4
f 25/5/5 10/17/5 11/18/5 26/16/5
f 9/19/3 28/6/3 27/15/3 12/20/3
f 8/21/6 7/22/6 10/23/6 9/24/6
f 7/22/6 5/25/6 11/26/6 10/23/6
f 6/27/6 8/21/6 9/24/6 12/28/6
f 5/25/6 6/27/6 12/28/6 11/26/6
f 13/12/7 16/11/7 20/29/7 17/30/7
f 7/31/2 8/32/2 13/33/2 14/34/2
f 6/35/4 5/36/4 15/37/4 16/38/4
f 5/39/5 7/40/5 14/41/5 15/42/5
f 20/43/8 19/44/8 23/45/8 24/46/8
f 14/34/2 13/33/2 17/47/2 18/48/2
f 16/38/4 15/37/4 19/49/4 20/50/4
f 15/42/9 14/41/9 18/51/9 19/52/9
f 22/53/5 21/54/5 24/46/5 23/45/5
f 19/55/10 18/56/10 22/53/10 23/45/10
f 17/57/11 20/58/11 24/46/11 21/54/11
f 18/59/12 17/60/12 21/54/12 22/53/12
f 1/61/13 3/62/13 25/5/13 26/16/13
f 2/63/13 1/61/13 26/16/13 27/15/13
f 4/64/13 2/63/13 27/15/13 28/6/13
f 3/62/13 4/64/13 28/6/13 25/5/13
f 30/65/13 31/4/13 32/3/13 29/66/13
f 3/67/14 1/68/14 30/65/14 29/66/14
f 4/69/4 3/70/4 29/66/4 32/3/4
f 1/71/2 2/72/2 31/4/2 30/65/2
