{
	"asset":{
		"generator":"Khronos glTF Blender I/O v5.1.18",
		"version":"2.0"
	},
	"extensionsUsed":[
		"KHR_materials_specular",
		"KHR_materials_ior"
	],
	"scene":0,
	"scenes":[
		{
			"name":"Scene",
			"nodes":[
				0,
				1,
				2,
				3,
				4,
				5,
				6,
				7,
				8,
				9
			]
		}
	],
	"nodes":[
		{
			"mesh":0,
			"name":"0_Character_2_Character_2",
			"rotation":[
				0.7071068286895752,
				0,
				0,
				0.7071068286895752
			]
		},
		{
			"mesh":1,
			"name":"Bench",
			"rotation":[
				0.7071068286895752,
				0,
				0,
				0.7071068286895752
			]
		},
		{
			"mesh":2,
			"name":"Button",
			"rotation":[
				0.7071068286895752,
				0,
				0,
				0.7071068286895752
			]
		},
		{
			"mesh":3,
			"name":"Door_Cube.002",
			"rotation":[
				0.7071068286895752,
				0,
				0,
				0.7071068286895752
			]
		},
		{
			"mesh":4,
			"name":"Fuel_Tank_Cube.001",
			"rotation":[
				0.7071068286895752,
				0,
				0,
				0.7071068286895752
			]
		},
		{
			"mesh":5,
			"name":"Lever",
			"rotation":[
				0.7071068286895752,
				0,
				0,
				0.7071068286895752
			]
		},
		{
			"mesh":6,
			"name":"Monitor_Cube.007",
			"rotation":[
				0.7071068286895752,
				0,
				0,
				0.7071068286895752
			]
		},
		{
			"mesh":7,
			"name":"Panel",
			"rotation":[
				0.7071068286895752,
				0,
				0,
				0.7071068286895752
			]
		},
		{
			"mesh":8,
			"name":"Register",
			"rotation":[
				0.7071068286895752,
				0,
				0,
				0.7071068286895752
			]
		},
		{
			"mesh":9,
			"name":"Kiosk_Cube.005",
			"rotation":[
				0.7071068286895752,
				0,
				0,
				0.7071068286895752
			]
		}
	],
	"materials":[
		{
			"alphaMode":"BLEND",
			"doubleSided":true,
			"name":"Character_2",
			"pbrMetallicRoughness":{
				"baseColorTexture":{
					"index":0
				},
				"metallicFactor":0,
				"roughnessFactor":0.5
			}
		},
		{
			"doubleSided":true,
			"extensions":{
				"KHR_materials_specular":{
					"specularFactor":0
				},
				"KHR_materials_ior":{
					"ior":1.4500000476837158
				}
			},
			"name":"ObjectMaterial",
			"pbrMetallicRoughness":{
				"baseColorTexture":{
					"index":1
				},
				"metallicFactor":0
			}
		},
		{
			"alphaMode":"BLEND",
			"doubleSided":true,
			"extensions":{
				"KHR_materials_specular":{
					"specularFactor":0
				}
			},
			"name":"KioskMaterial.002",
			"pbrMetallicRoughness":{
				"baseColorTexture":{
					"index":2
				},
				"metallicFactor":0
			}
		}
	],
	"meshes":[
		{
			"name":"0_Character_2_Character_2",
			"primitives":[
				{
					"attributes":{
						"POSITION":0,
						"NORMAL":1,
						"TEXCOORD_0":2
					},
					"indices":3,
					"material":0
				}
			]
		},
		{
			"name":"Bench",
			"primitives":[
				{
					"attributes":{
						"POSITION":4,
						"NORMAL":5,
						"TEXCOORD_0":6
					},
					"indices":7,
					"material":1
				}
			]
		},
		{
			"name":"Button",
			"primitives":[
				{
					"attributes":{
						"POSITION":8,
						"NORMAL":9,
						"TEXCOORD_0":10
					},
					"indices":11,
					"material":1
				}
			]
		},
		{
			"name":"Door_Cube.002",
			"primitives":[
				{
					"attributes":{
						"POSITION":12,
						"NORMAL":13,
						"TEXCOORD_0":14
					},
					"indices":15,
					"material":1
				}
			]
		},
		{
			"name":"Fuel_Tank_Cube.001",
			"primitives":[
				{
					"attributes":{
						"POSITION":16,
						"NORMAL":17,
						"TEXCOORD_0":18
					},
					"indices":19,
					"material":1
				}
			]
		},
		{
			"name":"Lever",
			"primitives":[
				{
					"attributes":{
						"POSITION":20,
						"NORMAL":21,
						"TEXCOORD_0":22
					},
					"indices":23,
					"material":1
				}
			]
		},
		{
			"name":"Monitor_Cube.007",
			"primitives":[
				{
					"attributes":{
						"POSITION":24,
						"NORMAL":25,
						"TEXCOORD_0":26
					},
					"indices":27,
					"material":1
				}
			]
		},
		{
			"name":"Panel",
			"primitives":[
				{
					"attributes":{
						"POSITION":28,
						"NORMAL":29,
						"TEXCOORD_0":30
					},
					"indices":31,
					"material":1
				}
			]
		},
		{
			"name":"Register",
			"primitives":[
				{
					"attributes":{
						"POSITION":32,
						"NORMAL":33,
						"TEXCOORD_0":34
					},
					"indices":35,
					"material":1
				}
			]
		},
		{
			"name":"Kiosk_Cube.005",
			"primitives":[
				{
					"attributes":{
						"POSITION":36,
						"NORMAL":37,
						"TEXCOORD_0":38
					},
					"indices":39,
					"material":2
				}
			]
		}
	],
	"textures":[
		{
			"sampler":0,
			"source":0
		},
		{
			"sampler":0,
			"source":1
		},
		{
			"sampler":0,
			"source":2
		}
	],
	"images":[
		{
			"mimeType":"image/png",
			"name":"Image",
			"uri":"texture/Image.png"
		},
		{
			"mimeType":"image/png",
			"name":"Objects Texture",
			"uri":"texture/Objects%20Texture.png"
		},
		{
			"mimeType":"image/png",
			"name":"Kiosk Texture.png-Kiosk Texture Alpha Map.png",
			"uri":"texture/Kiosk%20Texture.png-Kiosk%20Texture%20Alpha%20Map.png.png"
		}
	],
	"accessors":[
		{
			"bufferView":0,
			"componentType":5126,
			"count":4,
			"max":[
				0.8070250153541565,
				0.007563000079244375,
				0.044975001364946365
			],
			"min":[
				-0.5390059947967529,
				0.005683000199496746,
				-1.7905240058898926
			],
			"type":"VEC3"
		},
		{
			"bufferView":1,
			"componentType":5126,
			"count":4,
			"type":"VEC3"
		},
		{
			"bufferView":2,
			"componentType":5126,
			"count":4,
			"type":"VEC2"
		},
		{
			"bufferView":3,
			"componentType":5123,
			"count":6,
			"type":"SCALAR"
		},
		{
			"bufferView":4,
			"componentType":5126,
			"count":60,
			"max":[
				1.8179130554199219,
				1.5552209615707397,
				-0.06556600332260132
			],
			"min":[
				1.217913031578064,
				0.005450000055134296,
				-0.8155660033226013
			],
			"type":"VEC3"
		},
		{
			"bufferView":5,
			"componentType":5126,
			"count":60,
			"type":"VEC3"
		},
		{
			"bufferView":6,
			"componentType":5126,
			"count":60,
			"type":"VEC2"
		},
		{
			"bufferView":7,
			"componentType":5123,
			"count":120,
			"type":"SCALAR"
		},
		{
			"bufferView":8,
			"componentType":5126,
			"count":98,
			"max":[
				1.555793046951294,
				0.19004499912261963,
				-0.8535270094871521
			],
			"min":[
				1.4811559915542603,
				0.1019430011510849,
				-0.922104001045227
			],
			"type":"VEC3"
		},
		{
			"bufferView":9,
			"componentType":5126,
			"count":98,
			"type":"VEC3"
		},
		{
			"bufferView":10,
			"componentType":5126,
			"count":98,
			"type":"VEC2"
		},
		{
			"bufferView":11,
			"componentType":5123,
			"count":192,
			"type":"SCALAR"
		},
		{
			"bufferView":12,
			"componentType":5126,
			"count":32,
			"max":[
				-0.5203589797019958,
				1.3800749778747559,
				-0.11844100058078766
			],
			"min":[
				-0.5617210268974304,
				0.1384200006723404,
				-2.685502052307129
			],
			"type":"VEC3"
		},
		{
			"bufferView":13,
			"componentType":5126,
			"count":32,
			"type":"VEC3"
		},
		{
			"bufferView":14,
			"componentType":5126,
			"count":32,
			"type":"VEC2"
		},
		{
			"bufferView":15,
			"componentType":5123,
			"count":66,
			"type":"SCALAR"
		},
		{
			"bufferView":16,
			"componentType":5126,
			"count":200,
			"max":[
				1.8149620294570923,
				-0.24070100486278534,
				0
			],
			"min":[
				0.5559999942779541,
				-1.49966299533844,
				-2.9669129848480225
			],
			"type":"VEC3"
		},
		{
			"bufferView":17,
			"componentType":5126,
			"count":200,
			"type":"VEC3"
		},
		{
			"bufferView":18,
			"componentType":5126,
			"count":200,
			"type":"VEC2"
		},
		{
			"bufferView":19,
			"componentType":5123,
			"count":396,
			"type":"SCALAR"
		},
		{
			"bufferView":20,
			"componentType":5126,
			"count":104,
			"max":[
				1.7594629526138306,
				1.1284149885177612,
				-0.9310309886932373
			],
			"min":[
				1.6343050003051758,
				1.0428869724273682,
				-1.3866839408874512
			],
			"type":"VEC3"
		},
		{
			"bufferView":21,
			"componentType":5126,
			"count":104,
			"type":"VEC3"
		},
		{
			"bufferView":22,
			"componentType":5126,
			"count":104,
			"type":"VEC2"
		},
		{
			"bufferView":23,
			"componentType":5123,
			"count":180,
			"type":"SCALAR"
		},
		{
			"bufferView":24,
			"componentType":5126,
			"count":100,
			"max":[
				1.6656379699707031,
				1.4980520009994507,
				-0.8121640086174011
			],
			"min":[
				1.2769839763641357,
				1.0918279886245728,
				-1.199012041091919
			],
			"type":"VEC3"
		},
		{
			"bufferView":25,
			"componentType":5126,
			"count":100,
			"type":"VEC3"
		},
		{
			"bufferView":26,
			"componentType":5126,
			"count":100,
			"type":"VEC2"
		},
		{
			"bufferView":27,
			"componentType":5123,
			"count":180,
			"type":"SCALAR"
		},
		{
			"bufferView":28,
			"componentType":5126,
			"count":144,
			"max":[
				1.6900579929351807,
				0.28566300868988037,
				-0.7521420121192932
			],
			"min":[
				1.3909449577331543,
				-0.013450000435113907,
				-1.0332980155944824
			],
			"type":"VEC3"
		},
		{
			"bufferView":29,
			"componentType":5126,
			"count":144,
			"type":"VEC3"
		},
		{
			"bufferView":30,
			"componentType":5126,
			"count":144,
			"type":"VEC2"
		},
		{
			"bufferView":31,
			"componentType":5123,
			"count":312,
			"type":"SCALAR"
		},
		{
			"bufferView":32,
			"componentType":5126,
			"count":70,
			"max":[
				1.9233169555664062,
				1.0401710271835327,
				-0.8099709749221802
			],
			"min":[
				1.2108720541000366,
				0.29425400495529175,
				-1.320512056350708
			],
			"type":"VEC3"
		},
		{
			"bufferView":33,
			"componentType":5126,
			"count":70,
			"type":"VEC3"
		},
		{
			"bufferView":34,
			"componentType":5126,
			"count":70,
			"type":"VEC2"
		},
		{
			"bufferView":35,
			"componentType":5123,
			"count":132,
			"type":"SCALAR"
		},
		{
			"bufferView":36,
			"componentType":5126,
			"count":152,
			"max":[
				1.8664590120315552,
				1.57191801071167,
				-6.900000153109431e-05
			],
			"min":[
				-0.5096799731254578,
				-0.024240000173449516,
				-2.7693419456481934
			],
			"type":"VEC3"
		},
		{
			"bufferView":37,
			"componentType":5126,
			"count":152,
			"type":"VEC3"
		},
		{
			"bufferView":38,
			"componentType":5126,
			"count":152,
			"type":"VEC2"
		},
		{
			"bufferView":39,
			"componentType":5123,
			"count":342,
			"type":"SCALAR"
		}
	],
	"bufferViews":[
		{
			"buffer":0,
			"byteLength":48,
			"byteOffset":0,
			"target":34962
		},
		{
			"buffer":0,
			"byteLength":48,
			"byteOffset":48,
			"target":34962
		},
		{
			"buffer":0,
			"byteLength":32,
			"byteOffset":96,
			"target":34962
		},
		{
			"buffer":0,
			"byteLength":12,
			"byteOffset":128,
			"target":34963
		},
		{
			"buffer":0,
			"byteLength":720,
			"byteOffset":140,
			"target":34962
		},
		{
			"buffer":0,
			"byteLength":720,
			"byteOffset":860,
			"target":34962
		},
		{
			"buffer":0,
			"byteLength":480,
			"byteOffset":1580,
			"target":34962
		},
		{
			"buffer":0,
			"byteLength":240,
			"byteOffset":2060,
			"target":34963
		},
		{
			"buffer":0,
			"byteLength":1176,
			"byteOffset":2300,
			"target":34962
		},
		{
			"buffer":0,
			"byteLength":1176,
			"byteOffset":3476,
			"target":34962
		},
		{
			"buffer":0,
			"byteLength":784,
			"byteOffset":4652,
			"target":34962
		},
		{
			"buffer":0,
			"byteLength":384,
			"byteOffset":5436,
			"target":34963
		},
		{
			"buffer":0,
			"byteLength":384,
			"byteOffset":5820,
			"target":34962
		},
		{
			"buffer":0,
			"byteLength":384,
			"byteOffset":6204,
			"target":34962
		},
		{
			"buffer":0,
			"byteLength":256,
			"byteOffset":6588,
			"target":34962
		},
		{
			"buffer":0,
			"byteLength":132,
			"byteOffset":6844,
			"target":34963
		},
		{
			"buffer":0,
			"byteLength":2400,
			"byteOffset":6976,
			"target":34962
		},
		{
			"buffer":0,
			"byteLength":2400,
			"byteOffset":9376,
			"target":34962
		},
		{
			"buffer":0,
			"byteLength":1600,
			"byteOffset":11776,
			"target":34962
		},
		{
			"buffer":0,
			"byteLength":792,
			"byteOffset":13376,
			"target":34963
		},
		{
			"buffer":0,
			"byteLength":1248,
			"byteOffset":14168,
			"target":34962
		},
		{
			"buffer":0,
			"byteLength":1248,
			"byteOffset":15416,
			"target":34962
		},
		{
			"buffer":0,
			"byteLength":832,
			"byteOffset":16664,
			"target":34962
		},
		{
			"buffer":0,
			"byteLength":360,
			"byteOffset":17496,
			"target":34963
		},
		{
			"buffer":0,
			"byteLength":1200,
			"byteOffset":17856,
			"target":34962
		},
		{
			"buffer":0,
			"byteLength":1200,
			"byteOffset":19056,
			"target":34962
		},
		{
			"buffer":0,
			"byteLength":800,
			"byteOffset":20256,
			"target":34962
		},
		{
			"buffer":0,
			"byteLength":360,
			"byteOffset":21056,
			"target":34963
		},
		{
			"buffer":0,
			"byteLength":1728,
			"byteOffset":21416,
			"target":34962
		},
		{
			"buffer":0,
			"byteLength":1728,
			"byteOffset":23144,
			"target":34962
		},
		{
			"buffer":0,
			"byteLength":1152,
			"byteOffset":24872,
			"target":34962
		},
		{
			"buffer":0,
			"byteLength":624,
			"byteOffset":26024,
			"target":34963
		},
		{
			"buffer":0,
			"byteLength":840,
			"byteOffset":26648,
			"target":34962
		},
		{
			"buffer":0,
			"byteLength":840,
			"byteOffset":27488,
			"target":34962
		},
		{
			"buffer":0,
			"byteLength":560,
			"byteOffset":28328,
			"target":34962
		},
		{
			"buffer":0,
			"byteLength":264,
			"byteOffset":28888,
			"target":34963
		},
		{
			"buffer":0,
			"byteLength":1824,
			"byteOffset":29152,
			"target":34962
		},
		{
			"buffer":0,
			"byteLength":1824,
			"byteOffset":30976,
			"target":34962
		},
		{
			"buffer":0,
			"byteLength":1216,
			"byteOffset":32800,
			"target":34962
		},
		{
			"buffer":0,
			"byteLength":684,
			"byteOffset":34016,
			"target":34963
		}
	],
	"samplers":[
		{
			"magFilter":9729,
			"minFilter":9987
		}
	],
	"buffers":[
		{
			"byteLength":34700,
			"uri":"Kiosk.bin"
		}
	]
}
